<?xml version="1.0" encoding="utf-8"?>
<svg xmlns="http://www.w3.org/2000/svg" xmlns:xlink="http://www.w3.org/1999/xlink" width="600" height="400" viewBox="0 0 2400 1600">
<defs>
  <clipPath id="clip310">
    <rect x="0" y="0" width="2400" height="1600"/>
  </clipPath>
</defs>
<path clip-path="url(#clip310)" d="
M0 1600 L2400 1600 L2400 0 L0 0  Z
  " fill="#ffffff" fill-rule="evenodd" fill-opacity="1"/>
<defs>
  <clipPath id="clip311">
    <rect x="480" y="0" width="1681" height="1600"/>
  </clipPath>
</defs>
<path clip-path="url(#clip310)" d="
M169.121 1486.45 L2352.76 1486.45 L2352.76 47.2441 L169.121 47.2441  Z
  " fill="#eaeaea" fill-rule="evenodd" fill-opacity="1"/>
<defs>
  <clipPath id="clip312">
    <rect x="169" y="47" width="2185" height="1440"/>
  </clipPath>
</defs>
<polyline clip-path="url(#clip312)" style="stroke:#ffffff; stroke-linecap:butt; stroke-linejoin:round; stroke-width:4; stroke-opacity:1; fill:none" points="
  230.922,1486.45 230.922,47.2441 
  "/>
<polyline clip-path="url(#clip312)" style="stroke:#ffffff; stroke-linecap:butt; stroke-linejoin:round; stroke-width:4; stroke-opacity:1; fill:none" points="
  745.93,1486.45 745.93,47.2441 
  "/>
<polyline clip-path="url(#clip312)" style="stroke:#ffffff; stroke-linecap:butt; stroke-linejoin:round; stroke-width:4; stroke-opacity:1; fill:none" points="
  1260.94,1486.45 1260.94,47.2441 
  "/>
<polyline clip-path="url(#clip312)" style="stroke:#ffffff; stroke-linecap:butt; stroke-linejoin:round; stroke-width:4; stroke-opacity:1; fill:none" points="
  1775.95,1486.45 1775.95,47.2441 
  "/>
<polyline clip-path="url(#clip312)" style="stroke:#ffffff; stroke-linecap:butt; stroke-linejoin:round; stroke-width:4; stroke-opacity:1; fill:none" points="
  2290.95,1486.45 2290.95,47.2441 
  "/>
<polyline clip-path="url(#clip312)" style="stroke:#ffffff; stroke-linecap:butt; stroke-linejoin:round; stroke-width:2; stroke-opacity:1; fill:none" points="
  488.426,1486.45 488.426,47.2441 
  "/>
<polyline clip-path="url(#clip312)" style="stroke:#ffffff; stroke-linecap:butt; stroke-linejoin:round; stroke-width:2; stroke-opacity:1; fill:none" points="
  1003.43,1486.45 1003.43,47.2441 
  "/>
<polyline clip-path="url(#clip312)" style="stroke:#ffffff; stroke-linecap:butt; stroke-linejoin:round; stroke-width:2; stroke-opacity:1; fill:none" points="
  1518.44,1486.45 1518.44,47.2441 
  "/>
<polyline clip-path="url(#clip312)" style="stroke:#ffffff; stroke-linecap:butt; stroke-linejoin:round; stroke-width:2; stroke-opacity:1; fill:none" points="
  2033.45,1486.45 2033.45,47.2441 
  "/>
<polyline clip-path="url(#clip310)" style="stroke:#ffffff; stroke-linecap:butt; stroke-linejoin:round; stroke-width:4; stroke-opacity:1; fill:none" points="
  169.121,1486.45 2352.76,1486.45 
  "/>
<polyline clip-path="url(#clip310)" style="stroke:#333333; stroke-linecap:butt; stroke-linejoin:round; stroke-width:4; stroke-opacity:1; fill:none" points="
  230.922,1486.45 230.922,1505.35 
  "/>
<polyline clip-path="url(#clip310)" style="stroke:#333333; stroke-linecap:butt; stroke-linejoin:round; stroke-width:4; stroke-opacity:1; fill:none" points="
  745.93,1486.45 745.93,1505.35 
  "/>
<polyline clip-path="url(#clip310)" style="stroke:#333333; stroke-linecap:butt; stroke-linejoin:round; stroke-width:4; stroke-opacity:1; fill:none" points="
  1260.94,1486.45 1260.94,1505.35 
  "/>
<polyline clip-path="url(#clip310)" style="stroke:#333333; stroke-linecap:butt; stroke-linejoin:round; stroke-width:4; stroke-opacity:1; fill:none" points="
  1775.95,1486.45 1775.95,1505.35 
  "/>
<polyline clip-path="url(#clip310)" style="stroke:#333333; stroke-linecap:butt; stroke-linejoin:round; stroke-width:4; stroke-opacity:1; fill:none" points="
  2290.95,1486.45 2290.95,1505.35 
  "/>
<polyline clip-path="url(#clip310)" style="stroke:#333333; stroke-linecap:butt; stroke-linejoin:round; stroke-width:4; stroke-opacity:1; fill:none" points="
  488.426,1486.45 488.426,1495.9 
  "/>
<polyline clip-path="url(#clip310)" style="stroke:#333333; stroke-linecap:butt; stroke-linejoin:round; stroke-width:4; stroke-opacity:1; fill:none" points="
  1003.43,1486.45 1003.43,1495.9 
  "/>
<polyline clip-path="url(#clip310)" style="stroke:#333333; stroke-linecap:butt; stroke-linejoin:round; stroke-width:4; stroke-opacity:1; fill:none" points="
  1518.44,1486.45 1518.44,1495.9 
  "/>
<polyline clip-path="url(#clip310)" style="stroke:#333333; stroke-linecap:butt; stroke-linejoin:round; stroke-width:4; stroke-opacity:1; fill:none" points="
  2033.45,1486.45 2033.45,1495.9 
  "/>
<path clip-path="url(#clip310)" d="M208.307 1526.97 Q204.696 1526.97 202.867 1530.53 Q201.061 1534.07 201.061 1541.2 Q201.061 1548.31 202.867 1551.87 Q204.696 1555.42 208.307 1555.42 Q211.941 1555.42 213.746 1551.87 Q215.575 1548.31 215.575 1541.2 Q215.575 1534.07 213.746 1530.53 Q211.941 1526.97 208.307 1526.97 M208.307 1523.26 Q214.117 1523.26 217.172 1527.87 Q220.251 1532.45 220.251 1541.2 Q220.251 1549.93 217.172 1554.54 Q214.117 1559.12 208.307 1559.12 Q202.497 1559.12 199.418 1554.54 Q196.362 1549.93 196.362 1541.2 Q196.362 1532.45 199.418 1527.87 Q202.497 1523.26 208.307 1523.26 Z" fill="#4c4c4c" fill-rule="evenodd" fill-opacity="1" /><path clip-path="url(#clip310)" d="M228.469 1552.57 L233.353 1552.57 L233.353 1558.45 L228.469 1558.45 L228.469 1552.57 Z" fill="#4c4c4c" fill-rule="evenodd" fill-opacity="1" /><path clip-path="url(#clip310)" d="M253.538 1526.97 Q249.927 1526.97 248.098 1530.53 Q246.293 1534.07 246.293 1541.2 Q246.293 1548.31 248.098 1551.87 Q249.927 1555.42 253.538 1555.42 Q257.172 1555.42 258.978 1551.87 Q260.806 1548.31 260.806 1541.2 Q260.806 1534.07 258.978 1530.53 Q257.172 1526.97 253.538 1526.97 M253.538 1523.26 Q259.348 1523.26 262.404 1527.87 Q265.482 1532.45 265.482 1541.2 Q265.482 1549.93 262.404 1554.54 Q259.348 1559.12 253.538 1559.12 Q247.728 1559.12 244.649 1554.54 Q241.594 1549.93 241.594 1541.2 Q241.594 1532.45 244.649 1527.87 Q247.728 1523.26 253.538 1523.26 Z" fill="#4c4c4c" fill-rule="evenodd" fill-opacity="1" /><path clip-path="url(#clip310)" d="M717.667 1554.51 L733.986 1554.51 L733.986 1558.45 L712.042 1558.45 L712.042 1554.51 Q714.704 1551.76 719.287 1547.13 Q723.894 1542.48 725.074 1541.13 Q727.319 1538.61 728.199 1536.87 Q729.102 1535.11 729.102 1533.42 Q729.102 1530.67 727.157 1528.93 Q725.236 1527.2 722.134 1527.2 Q719.935 1527.2 717.482 1527.96 Q715.051 1528.73 712.273 1530.28 L712.273 1525.55 Q715.097 1524.42 717.551 1523.84 Q720.005 1523.26 722.042 1523.26 Q727.412 1523.26 730.606 1525.95 Q733.801 1528.63 733.801 1533.12 Q733.801 1535.25 732.991 1537.17 Q732.204 1539.07 730.097 1541.67 Q729.519 1542.34 726.417 1545.55 Q723.315 1548.75 717.667 1554.51 Z" fill="#4c4c4c" fill-rule="evenodd" fill-opacity="1" /><path clip-path="url(#clip310)" d="M743.801 1552.57 L748.685 1552.57 L748.685 1558.45 L743.801 1558.45 L743.801 1552.57 Z" fill="#4c4c4c" fill-rule="evenodd" fill-opacity="1" /><path clip-path="url(#clip310)" d="M758.916 1523.89 L777.273 1523.89 L777.273 1527.82 L763.199 1527.82 L763.199 1536.3 Q764.217 1535.95 765.236 1535.79 Q766.254 1535.6 767.273 1535.6 Q773.06 1535.6 776.44 1538.77 Q779.819 1541.94 779.819 1547.36 Q779.819 1552.94 776.347 1556.04 Q772.875 1559.12 766.555 1559.12 Q764.379 1559.12 762.111 1558.75 Q759.866 1558.38 757.458 1557.64 L757.458 1552.94 Q759.541 1554.07 761.764 1554.63 Q763.986 1555.18 766.463 1555.18 Q770.467 1555.18 772.805 1553.08 Q775.143 1550.97 775.143 1547.36 Q775.143 1543.75 772.805 1541.64 Q770.467 1539.54 766.463 1539.54 Q764.588 1539.54 762.713 1539.95 Q760.861 1540.37 758.916 1541.25 L758.916 1523.89 Z" fill="#4c4c4c" fill-rule="evenodd" fill-opacity="1" /><path clip-path="url(#clip310)" d="M1228.1 1523.89 L1246.46 1523.89 L1246.46 1527.82 L1232.39 1527.82 L1232.39 1536.3 Q1233.4 1535.95 1234.42 1535.79 Q1235.44 1535.6 1236.46 1535.6 Q1242.25 1535.6 1245.63 1538.77 Q1249.01 1541.94 1249.01 1547.36 Q1249.01 1552.94 1245.53 1556.04 Q1242.06 1559.12 1235.74 1559.12 Q1233.57 1559.12 1231.3 1558.75 Q1229.05 1558.38 1226.64 1557.64 L1226.64 1552.94 Q1228.73 1554.07 1230.95 1554.63 Q1233.17 1555.18 1235.65 1555.18 Q1239.65 1555.18 1241.99 1553.08 Q1244.33 1550.97 1244.33 1547.36 Q1244.33 1543.75 1241.99 1541.64 Q1239.65 1539.54 1235.65 1539.54 Q1233.77 1539.54 1231.9 1539.95 Q1230.05 1540.37 1228.1 1541.25 L1228.1 1523.89 Z" fill="#4c4c4c" fill-rule="evenodd" fill-opacity="1" /><path clip-path="url(#clip310)" d="M1258.22 1552.57 L1263.1 1552.57 L1263.1 1558.45 L1258.22 1558.45 L1258.22 1552.57 Z" fill="#4c4c4c" fill-rule="evenodd" fill-opacity="1" /><path clip-path="url(#clip310)" d="M1283.29 1526.97 Q1279.68 1526.97 1277.85 1530.53 Q1276.04 1534.07 1276.04 1541.2 Q1276.04 1548.31 1277.85 1551.87 Q1279.68 1555.42 1283.29 1555.42 Q1286.92 1555.42 1288.73 1551.87 Q1290.56 1548.31 1290.56 1541.2 Q1290.56 1534.07 1288.73 1530.53 Q1286.92 1526.97 1283.29 1526.97 M1283.29 1523.26 Q1289.1 1523.26 1292.15 1527.87 Q1295.23 1532.45 1295.23 1541.2 Q1295.23 1549.93 1292.15 1554.54 Q1289.1 1559.12 1283.29 1559.12 Q1277.48 1559.12 1274.4 1554.54 Q1271.34 1549.93 1271.34 1541.2 Q1271.34 1532.45 1274.4 1527.87 Q1277.48 1523.26 1283.29 1523.26 Z" fill="#4c4c4c" fill-rule="evenodd" fill-opacity="1" /><path clip-path="url(#clip310)" d="M1742.27 1523.89 L1764.49 1523.89 L1764.49 1525.88 L1751.94 1558.45 L1747.06 1558.45 L1758.86 1527.82 L1742.27 1527.82 L1742.27 1523.89 Z" fill="#4c4c4c" fill-rule="evenodd" fill-opacity="1" /><path clip-path="url(#clip310)" d="M1773.61 1552.57 L1778.49 1552.57 L1778.49 1558.45 L1773.61 1558.45 L1773.61 1552.57 Z" fill="#4c4c4c" fill-rule="evenodd" fill-opacity="1" /><path clip-path="url(#clip310)" d="M1788.72 1523.89 L1807.08 1523.89 L1807.08 1527.82 L1793.01 1527.82 L1793.01 1536.3 Q1794.03 1535.95 1795.04 1535.79 Q1796.06 1535.6 1797.08 1535.6 Q1802.87 1535.6 1806.25 1538.77 Q1809.63 1541.94 1809.63 1547.36 Q1809.63 1552.94 1806.15 1556.04 Q1802.68 1559.12 1796.36 1559.12 Q1794.19 1559.12 1791.92 1558.75 Q1789.67 1558.38 1787.27 1557.64 L1787.27 1552.94 Q1789.35 1554.07 1791.57 1554.63 Q1793.79 1555.18 1796.27 1555.18 Q1800.28 1555.18 1802.61 1553.08 Q1804.95 1550.97 1804.95 1547.36 Q1804.95 1543.75 1802.61 1541.64 Q1800.28 1539.54 1796.27 1539.54 Q1794.4 1539.54 1792.52 1539.95 Q1790.67 1540.37 1788.72 1541.25 L1788.72 1523.89 Z" fill="#4c4c4c" fill-rule="evenodd" fill-opacity="1" /><path clip-path="url(#clip310)" d="M2243.03 1554.51 L2250.67 1554.51 L2250.67 1528.15 L2242.36 1529.81 L2242.36 1525.55 L2250.62 1523.89 L2255.3 1523.89 L2255.3 1554.51 L2262.93 1554.51 L2262.93 1558.45 L2243.03 1558.45 L2243.03 1554.51 Z" fill="#4c4c4c" fill-rule="evenodd" fill-opacity="1" /><path clip-path="url(#clip310)" d="M2282.38 1526.97 Q2278.77 1526.97 2276.94 1530.53 Q2275.13 1534.07 2275.13 1541.2 Q2275.13 1548.31 2276.94 1551.87 Q2278.77 1555.42 2282.38 1555.42 Q2286.01 1555.42 2287.82 1551.87 Q2289.65 1548.31 2289.65 1541.2 Q2289.65 1534.07 2287.82 1530.53 Q2286.01 1526.97 2282.38 1526.97 M2282.38 1523.26 Q2288.19 1523.26 2291.24 1527.87 Q2294.32 1532.45 2294.32 1541.2 Q2294.32 1549.93 2291.24 1554.54 Q2288.19 1559.12 2282.38 1559.12 Q2276.57 1559.12 2273.49 1554.54 Q2270.43 1549.93 2270.43 1541.2 Q2270.43 1532.45 2273.49 1527.87 Q2276.57 1523.26 2282.38 1523.26 Z" fill="#4c4c4c" fill-rule="evenodd" fill-opacity="1" /><path clip-path="url(#clip310)" d="M2302.54 1552.57 L2307.42 1552.57 L2307.42 1558.45 L2302.54 1558.45 L2302.54 1552.57 Z" fill="#4c4c4c" fill-rule="evenodd" fill-opacity="1" /><path clip-path="url(#clip310)" d="M2327.61 1526.97 Q2324 1526.97 2322.17 1530.53 Q2320.36 1534.07 2320.36 1541.2 Q2320.36 1548.31 2322.17 1551.87 Q2324 1555.42 2327.61 1555.42 Q2331.24 1555.42 2333.05 1551.87 Q2334.88 1548.31 2334.88 1541.2 Q2334.88 1534.07 2333.05 1530.53 Q2331.24 1526.97 2327.61 1526.97 M2327.61 1523.26 Q2333.42 1523.26 2336.48 1527.87 Q2339.55 1532.45 2339.55 1541.2 Q2339.55 1549.93 2336.48 1554.54 Q2333.42 1559.12 2327.61 1559.12 Q2321.8 1559.12 2318.72 1554.54 Q2315.67 1549.93 2315.67 1541.2 Q2315.67 1532.45 2318.72 1527.87 Q2321.8 1523.26 2327.61 1523.26 Z" fill="#4c4c4c" fill-rule="evenodd" fill-opacity="1" /><polyline clip-path="url(#clip312)" style="stroke:#ffffff; stroke-linecap:butt; stroke-linejoin:round; stroke-width:4; stroke-opacity:1; fill:none" points="
  169.121,1384 2352.76,1384 
  "/>
<polyline clip-path="url(#clip312)" style="stroke:#ffffff; stroke-linecap:butt; stroke-linejoin:round; stroke-width:4; stroke-opacity:1; fill:none" points="
  169.121,1075.42 2352.76,1075.42 
  "/>
<polyline clip-path="url(#clip312)" style="stroke:#ffffff; stroke-linecap:butt; stroke-linejoin:round; stroke-width:4; stroke-opacity:1; fill:none" points="
  169.121,766.846 2352.76,766.846 
  "/>
<polyline clip-path="url(#clip312)" style="stroke:#ffffff; stroke-linecap:butt; stroke-linejoin:round; stroke-width:4; stroke-opacity:1; fill:none" points="
  169.121,458.269 2352.76,458.269 
  "/>
<polyline clip-path="url(#clip312)" style="stroke:#ffffff; stroke-linecap:butt; stroke-linejoin:round; stroke-width:4; stroke-opacity:1; fill:none" points="
  169.121,149.692 2352.76,149.692 
  "/>
<polyline clip-path="url(#clip312)" style="stroke:#ffffff; stroke-linecap:butt; stroke-linejoin:round; stroke-width:2; stroke-opacity:1; fill:none" points="
  169.121,1229.71 2352.76,1229.71 
  "/>
<polyline clip-path="url(#clip312)" style="stroke:#ffffff; stroke-linecap:butt; stroke-linejoin:round; stroke-width:2; stroke-opacity:1; fill:none" points="
  169.121,921.135 2352.76,921.135 
  "/>
<polyline clip-path="url(#clip312)" style="stroke:#ffffff; stroke-linecap:butt; stroke-linejoin:round; stroke-width:2; stroke-opacity:1; fill:none" points="
  169.121,612.557 2352.76,612.557 
  "/>
<polyline clip-path="url(#clip312)" style="stroke:#ffffff; stroke-linecap:butt; stroke-linejoin:round; stroke-width:2; stroke-opacity:1; fill:none" points="
  169.121,303.98 2352.76,303.98 
  "/>
<polyline clip-path="url(#clip310)" style="stroke:#ffffff; stroke-linecap:butt; stroke-linejoin:round; stroke-width:4; stroke-opacity:1; fill:none" points="
  169.121,1486.45 169.121,47.2441 
  "/>
<polyline clip-path="url(#clip310)" style="stroke:#333333; stroke-linecap:butt; stroke-linejoin:round; stroke-width:4; stroke-opacity:1; fill:none" points="
  169.121,1384 150.224,1384 
  "/>
<polyline clip-path="url(#clip310)" style="stroke:#333333; stroke-linecap:butt; stroke-linejoin:round; stroke-width:4; stroke-opacity:1; fill:none" points="
  169.121,1075.42 150.224,1075.42 
  "/>
<polyline clip-path="url(#clip310)" style="stroke:#333333; stroke-linecap:butt; stroke-linejoin:round; stroke-width:4; stroke-opacity:1; fill:none" points="
  169.121,766.846 150.224,766.846 
  "/>
<polyline clip-path="url(#clip310)" style="stroke:#333333; stroke-linecap:butt; stroke-linejoin:round; stroke-width:4; stroke-opacity:1; fill:none" points="
  169.121,458.269 150.224,458.269 
  "/>
<polyline clip-path="url(#clip310)" style="stroke:#333333; stroke-linecap:butt; stroke-linejoin:round; stroke-width:4; stroke-opacity:1; fill:none" points="
  169.121,149.692 150.224,149.692 
  "/>
<polyline clip-path="url(#clip310)" style="stroke:#333333; stroke-linecap:butt; stroke-linejoin:round; stroke-width:4; stroke-opacity:1; fill:none" points="
  169.121,1229.71 159.672,1229.71 
  "/>
<polyline clip-path="url(#clip310)" style="stroke:#333333; stroke-linecap:butt; stroke-linejoin:round; stroke-width:4; stroke-opacity:1; fill:none" points="
  169.121,921.135 159.672,921.135 
  "/>
<polyline clip-path="url(#clip310)" style="stroke:#333333; stroke-linecap:butt; stroke-linejoin:round; stroke-width:4; stroke-opacity:1; fill:none" points="
  169.121,612.557 159.672,612.557 
  "/>
<polyline clip-path="url(#clip310)" style="stroke:#333333; stroke-linecap:butt; stroke-linejoin:round; stroke-width:4; stroke-opacity:1; fill:none" points="
  169.121,303.98 159.672,303.98 
  "/>
<path clip-path="url(#clip310)" d="M103.177 1369.8 Q99.5658 1369.8 97.7371 1373.36 Q95.9316 1376.91 95.9316 1384.03 Q95.9316 1391.14 97.7371 1394.71 Q99.5658 1398.25 103.177 1398.25 Q106.811 1398.25 108.617 1394.71 Q110.445 1391.14 110.445 1384.03 Q110.445 1376.91 108.617 1373.36 Q106.811 1369.8 103.177 1369.8 M103.177 1366.1 Q108.987 1366.1 112.043 1370.7 Q115.121 1375.29 115.121 1384.03 Q115.121 1392.76 112.043 1397.37 Q108.987 1401.95 103.177 1401.95 Q97.3668 1401.95 94.2881 1397.37 Q91.2326 1392.76 91.2326 1384.03 Q91.2326 1375.29 94.2881 1370.7 Q97.3668 1366.1 103.177 1366.1 Z" fill="#4c4c4c" fill-rule="evenodd" fill-opacity="1" /><path clip-path="url(#clip310)" d="M68.0382 1088.77 L84.3576 1088.77 L84.3576 1092.7 L62.4133 1092.7 L62.4133 1088.77 Q65.0753 1086.01 69.6586 1081.38 Q74.2651 1076.73 75.4456 1075.39 Q77.691 1072.87 78.5706 1071.13 Q79.4734 1069.37 79.4734 1067.68 Q79.4734 1064.93 77.5289 1063.19 Q75.6076 1061.45 72.5058 1061.45 Q70.3067 1061.45 67.8531 1062.22 Q65.4225 1062.98 62.6447 1064.53 L62.6447 1059.81 Q65.4688 1058.68 67.9225 1058.1 Q70.3762 1057.52 72.4132 1057.52 Q77.7836 1057.52 80.978 1060.2 Q84.1724 1062.89 84.1724 1067.38 Q84.1724 1069.51 83.3622 1071.43 Q82.5752 1073.33 80.4687 1075.92 Q79.89 1076.59 76.7882 1079.81 Q73.6864 1083 68.0382 1088.77 Z" fill="#4c4c4c" fill-rule="evenodd" fill-opacity="1" /><path clip-path="url(#clip310)" d="M94.2186 1058.14 L112.575 1058.14 L112.575 1062.08 L98.501 1062.08 L98.501 1070.55 Q99.5195 1070.2 100.538 1070.04 Q101.557 1069.86 102.575 1069.86 Q108.362 1069.86 111.742 1073.03 Q115.121 1076.2 115.121 1081.62 Q115.121 1087.19 111.649 1090.3 Q108.177 1093.37 101.857 1093.37 Q99.6816 1093.37 97.4131 1093 Q95.1677 1092.63 92.7603 1091.89 L92.7603 1087.19 Q94.8436 1088.33 97.0659 1088.88 Q99.2881 1089.44 101.765 1089.44 Q105.77 1089.44 108.107 1087.33 Q110.445 1085.23 110.445 1081.62 Q110.445 1078 108.107 1075.9 Q105.77 1073.79 101.765 1073.79 Q99.8899 1073.79 98.0149 1074.21 Q96.1631 1074.62 94.2186 1075.5 L94.2186 1058.14 Z" fill="#4c4c4c" fill-rule="evenodd" fill-opacity="1" /><path clip-path="url(#clip310)" d="M63.0614 749.566 L81.4178 749.566 L81.4178 753.501 L67.3438 753.501 L67.3438 761.973 Q68.3623 761.626 69.3808 761.464 Q70.3993 761.279 71.4178 761.279 Q77.2049 761.279 80.5845 764.45 Q83.9641 767.621 83.9641 773.038 Q83.9641 778.617 80.4919 781.719 Q77.0197 784.797 70.7003 784.797 Q68.5243 784.797 66.2558 784.427 Q64.0105 784.057 61.6031 783.316 L61.6031 778.617 Q63.6864 779.751 65.9086 780.307 Q68.1308 780.862 70.6077 780.862 Q74.6123 780.862 76.9502 778.756 Q79.2882 776.649 79.2882 773.038 Q79.2882 769.427 76.9502 767.321 Q74.6123 765.214 70.6077 765.214 Q68.7327 765.214 66.8577 765.631 Q65.0058 766.047 63.0614 766.927 L63.0614 749.566 Z" fill="#4c4c4c" fill-rule="evenodd" fill-opacity="1" /><path clip-path="url(#clip310)" d="M103.177 752.645 Q99.5658 752.645 97.7371 756.209 Q95.9316 759.751 95.9316 766.881 Q95.9316 773.987 97.7371 777.552 Q99.5658 781.094 103.177 781.094 Q106.811 781.094 108.617 777.552 Q110.445 773.987 110.445 766.881 Q110.445 759.751 108.617 756.209 Q106.811 752.645 103.177 752.645 M103.177 748.941 Q108.987 748.941 112.043 753.547 Q115.121 758.131 115.121 766.881 Q115.121 775.608 112.043 780.214 Q108.987 784.797 103.177 784.797 Q97.3668 784.797 94.2881 780.214 Q91.2326 775.608 91.2326 766.881 Q91.2326 758.131 94.2881 753.547 Q97.3668 748.941 103.177 748.941 Z" fill="#4c4c4c" fill-rule="evenodd" fill-opacity="1" /><path clip-path="url(#clip310)" d="M62.8299 440.989 L85.052 440.989 L85.052 442.98 L72.5058 475.549 L67.6216 475.549 L79.4271 444.924 L62.8299 444.924 L62.8299 440.989 Z" fill="#4c4c4c" fill-rule="evenodd" fill-opacity="1" /><path clip-path="url(#clip310)" d="M94.2186 440.989 L112.575 440.989 L112.575 444.924 L98.501 444.924 L98.501 453.396 Q99.5195 453.049 100.538 452.887 Q101.557 452.702 102.575 452.702 Q108.362 452.702 111.742 455.873 Q115.121 459.044 115.121 464.461 Q115.121 470.04 111.649 473.141 Q108.177 476.22 101.857 476.22 Q99.6816 476.22 97.4131 475.85 Q95.1677 475.479 92.7603 474.739 L92.7603 470.04 Q94.8436 471.174 97.0659 471.729 Q99.2881 472.285 101.765 472.285 Q105.77 472.285 108.107 470.179 Q110.445 468.072 110.445 464.461 Q110.445 460.85 108.107 458.743 Q105.77 456.637 101.765 456.637 Q99.8899 456.637 98.0149 457.054 Q96.1631 457.47 94.2186 458.35 L94.2186 440.989 Z" fill="#4c4c4c" fill-rule="evenodd" fill-opacity="1" /><path clip-path="url(#clip310)" d="M33.6634 163.037 L41.3023 163.037 L41.3023 136.671 L32.9921 138.338 L32.9921 134.078 L41.256 132.412 L45.9319 132.412 L45.9319 163.037 L53.5707 163.037 L53.5707 166.972 L33.6634 166.972 L33.6634 163.037 Z" fill="#4c4c4c" fill-rule="evenodd" fill-opacity="1" /><path clip-path="url(#clip310)" d="M73.0151 135.49 Q69.404 135.49 67.5753 139.055 Q65.7697 142.597 65.7697 149.726 Q65.7697 156.833 67.5753 160.398 Q69.404 163.939 73.0151 163.939 Q76.6493 163.939 78.4548 160.398 Q80.2835 156.833 80.2835 149.726 Q80.2835 142.597 78.4548 139.055 Q76.6493 135.49 73.0151 135.49 M73.0151 131.787 Q78.8252 131.787 81.8808 136.393 Q84.9594 140.976 84.9594 149.726 Q84.9594 158.453 81.8808 163.06 Q78.8252 167.643 73.0151 167.643 Q67.2049 167.643 64.1262 163.06 Q61.0707 158.453 61.0707 149.726 Q61.0707 140.976 64.1262 136.393 Q67.2049 131.787 73.0151 131.787 Z" fill="#4c4c4c" fill-rule="evenodd" fill-opacity="1" /><path clip-path="url(#clip310)" d="M103.177 135.49 Q99.5658 135.49 97.7371 139.055 Q95.9316 142.597 95.9316 149.726 Q95.9316 156.833 97.7371 160.398 Q99.5658 163.939 103.177 163.939 Q106.811 163.939 108.617 160.398 Q110.445 156.833 110.445 149.726 Q110.445 142.597 108.617 139.055 Q106.811 135.49 103.177 135.49 M103.177 131.787 Q108.987 131.787 112.043 136.393 Q115.121 140.976 115.121 149.726 Q115.121 158.453 112.043 163.06 Q108.987 167.643 103.177 167.643 Q97.3668 167.643 94.2881 163.06 Q91.2326 158.453 91.2326 149.726 Q91.2326 140.976 94.2881 136.393 Q97.3668 131.787 103.177 131.787 Z" fill="#4c4c4c" fill-rule="evenodd" fill-opacity="1" /><polyline clip-path="url(#clip312)" style="stroke:#009af9; stroke-linecap:butt; stroke-linejoin:round; stroke-width:4; stroke-opacity:1; fill:none" points="
  230.922,87.9763 232.982,94.1324 235.042,100.258 237.102,106.353 239.162,112.417 241.222,118.451 243.282,124.456 245.343,130.43 247.403,136.374 249.463,142.289 
  251.523,148.174 253.583,154.03 255.643,159.857 257.703,165.654 259.763,171.423 261.823,177.163 263.883,182.874 265.943,188.557 268.003,194.212 270.063,199.838 
  272.123,205.436 274.183,211.007 276.243,216.549 278.303,222.064 280.363,227.551 282.423,233.011 284.483,238.444 286.543,243.85 288.603,249.229 290.663,254.58 
  292.723,259.906 294.783,265.204 296.843,270.476 298.903,275.722 300.963,280.942 303.023,286.136 305.083,291.304 307.144,296.446 309.204,301.562 311.264,306.653 
  313.324,311.718 315.384,316.759 317.444,321.774 319.504,326.764 321.564,331.729 323.624,336.669 325.684,341.585 327.744,346.476 329.804,351.343 331.864,356.186 
  333.924,361.004 335.984,365.799 338.044,370.569 340.104,375.316 342.164,380.039 344.224,384.738 346.284,389.414 348.344,394.067 350.404,398.697 352.464,403.303 
  354.524,407.887 356.584,412.447 358.644,416.985 360.704,421.5 362.764,425.993 364.824,430.463 366.884,434.911 368.944,439.337 371.005,443.741 373.065,448.122 
  375.125,452.482 377.185,456.82 379.245,461.137 381.305,465.432 383.365,469.706 385.425,473.958 387.485,478.189 389.545,482.399 391.605,486.588 393.665,490.756 
  395.725,494.903 397.785,499.03 399.845,503.136 401.905,507.221 403.965,511.286 406.025,515.331 408.085,519.356 410.145,523.361 412.205,527.345 414.265,531.31 
  416.325,535.255 418.385,539.18 420.445,543.086 422.505,546.972 424.565,550.839 426.625,554.687 428.685,558.515 430.745,562.325 432.805,566.115 434.866,569.886 
  436.926,573.639 438.986,577.373 441.046,581.088 443.106,584.785 445.166,588.463 447.226,592.123 449.286,595.765 451.346,599.388 453.406,602.994 455.466,606.581 
  457.526,610.151 459.586,613.703 461.646,617.237 463.706,620.753 465.766,624.252 467.826,627.733 469.886,631.197 471.946,634.644 474.006,638.074 476.066,641.486 
  478.126,644.882 480.186,648.26 482.246,651.622 484.306,654.967 486.366,658.295 488.426,661.607 490.486,664.902 492.546,668.181 494.606,671.443 496.667,674.689 
  498.727,677.919 500.787,681.133 502.847,684.331 504.907,687.513 506.967,690.679 509.027,693.829 511.087,696.963 513.147,700.082 515.207,703.185 517.267,706.273 
  519.327,709.345 521.387,712.402 523.447,715.444 525.507,718.471 527.567,721.482 529.627,724.479 531.687,727.46 533.747,730.427 535.807,733.379 537.867,736.316 
  539.927,739.239 541.987,742.147 544.047,745.04 546.107,747.919 548.167,750.784 550.227,753.634 552.287,756.47 554.347,759.292 556.407,762.1 558.467,764.894 
  560.528,767.674 562.588,770.44 564.648,773.193 566.708,775.931 568.768,778.656 570.828,781.368 572.888,784.065 574.948,786.75 577.008,789.421 579.068,792.079 
  581.128,794.723 583.188,797.354 585.248,799.972 587.308,802.577 589.368,805.169 591.428,807.748 593.488,810.315 595.548,812.868 597.608,815.409 599.668,817.937 
  601.728,820.452 603.788,822.955 605.848,825.446 607.908,827.924 609.968,830.389 612.028,832.843 614.088,835.284 616.148,837.713 618.208,840.13 620.268,842.534 
  622.328,844.927 624.389,847.308 626.449,849.677 628.509,852.034 630.569,854.379 632.629,856.713 634.689,859.035 636.749,861.346 638.809,863.645 640.869,865.932 
  642.929,868.208 644.989,870.473 647.049,872.726 649.109,874.968 651.169,877.199 653.229,879.419 655.289,881.628 657.349,883.826 659.409,886.013 661.469,888.189 
  663.529,890.354 665.589,892.508 667.649,894.651 669.709,896.784 671.769,898.906 673.829,901.018 675.889,903.119 677.949,905.21 680.009,907.29 682.069,909.36 
  684.129,911.419 686.19,913.468 688.25,915.507 690.31,917.536 692.37,919.555 694.43,921.564 696.49,923.562 698.55,925.551 700.61,927.529 702.67,929.498 
  704.73,931.457 706.79,933.407 708.85,935.346 710.91,937.276 712.97,939.196 715.03,941.107 717.09,943.008 719.15,944.9 721.21,946.782 723.27,948.655 
  725.33,950.518 727.39,952.372 729.45,954.217 731.51,956.053 733.57,957.88 735.63,959.697 737.69,961.506 739.75,963.305 741.81,965.095 743.87,966.877 
  745.93,968.65 747.99,970.413 750.051,972.168 752.111,973.914 754.171,975.652 756.231,977.381 758.291,979.101 760.351,980.813 762.411,982.516 764.471,984.21 
  766.531,985.897 768.591,987.574 770.651,989.244 772.711,990.905 774.771,992.557 776.831,994.202 778.891,995.838 780.951,997.466 783.011,999.086 785.071,1000.7 
  787.131,1002.3 789.191,1003.9 791.251,1005.49 793.311,1007.07 795.371,1008.64 797.431,1010.2 799.491,1011.76 801.551,1013.31 803.611,1014.85 805.671,1016.38 
  807.731,1017.91 809.791,1019.43 811.851,1020.94 813.912,1022.44 815.972,1023.94 818.032,1025.42 820.092,1026.9 822.152,1028.38 824.212,1029.84 826.272,1031.3 
  828.332,1032.75 830.392,1034.2 832.452,1035.63 834.512,1037.06 836.572,1038.49 838.632,1039.9 840.692,1041.31 842.752,1042.71 844.812,1044.11 846.872,1045.49 
  848.932,1046.87 850.992,1048.25 853.052,1049.61 855.112,1050.97 857.172,1052.33 859.232,1053.67 861.292,1055.01 863.352,1056.35 865.412,1057.67 867.472,1058.99 
  869.532,1060.31 871.592,1061.61 873.652,1062.91 875.713,1064.21 877.773,1065.49 879.833,1066.77 881.893,1068.05 883.953,1069.32 886.013,1070.58 888.073,1071.83 
  890.133,1073.08 892.193,1074.33 894.253,1075.56 896.313,1076.79 898.373,1078.02 900.433,1079.24 902.493,1080.45 904.553,1081.65 906.613,1082.85 908.673,1084.05 
  910.733,1085.24 912.793,1086.42 914.853,1087.59 916.913,1088.77 918.973,1089.93 921.033,1091.09 923.093,1092.24 925.153,1093.39 927.213,1094.53 929.273,1095.67 
  931.333,1096.8 933.393,1097.92 935.453,1099.04 937.513,1100.15 939.574,1101.26 941.634,1102.36 943.694,1103.46 945.754,1104.55 947.814,1105.64 949.874,1106.72 
  951.934,1107.79 953.994,1108.86 956.054,1109.93 958.114,1110.99 960.174,1112.04 962.234,1113.09 964.294,1114.13 966.354,1115.17 968.414,1116.2 970.474,1117.23 
  972.534,1118.26 974.594,1119.27 976.654,1120.29 978.714,1121.29 980.774,1122.3 982.834,1123.29 984.894,1124.28 986.954,1125.27 989.014,1126.26 991.074,1127.23 
  993.134,1128.21 995.194,1129.17 997.254,1130.14 999.314,1131.1 1001.37,1132.05 1003.43,1133 1005.49,1133.94 1007.55,1134.88 1009.61,1135.82 1011.67,1136.75 
  1013.73,1137.67 1015.79,1138.59 1017.85,1139.51 1019.91,1140.42 1021.97,1141.33 1024.03,1142.23 1026.09,1143.13 1028.15,1144.02 1030.21,1144.91 1032.27,1145.79 
  1034.34,1146.67 1036.4,1147.55 1038.46,1148.42 1040.52,1149.29 1042.58,1150.15 1044.64,1151.01 1046.7,1151.86 1048.76,1152.71 1050.82,1153.56 1052.88,1154.4 
  1054.94,1155.24 1057,1156.07 1059.06,1156.9 1061.12,1157.73 1063.18,1158.55 1065.24,1159.36 1067.3,1160.18 1069.36,1160.98 1071.42,1161.79 1073.48,1162.59 
  1075.54,1163.39 1077.6,1164.18 1079.66,1164.97 1081.72,1165.75 1083.78,1166.53 1085.84,1167.31 1087.9,1168.08 1089.96,1168.85 1092.02,1169.62 1094.08,1170.38 
  1096.14,1171.14 1098.2,1171.89 1100.26,1172.64 1102.32,1173.39 1104.38,1174.13 1106.44,1174.87 1108.5,1175.6 1110.56,1176.33 1112.62,1177.06 1114.68,1177.79 
  1116.74,1178.51 1118.8,1179.22 1120.86,1179.94 1122.92,1180.65 1124.98,1181.35 1127.04,1182.06 1129.1,1182.76 1131.16,1183.45 1133.22,1184.15 1135.28,1184.83 
  1137.34,1185.52 1139.4,1186.2 1141.46,1186.88 1143.52,1187.56 1145.58,1188.23 1147.64,1188.9 1149.7,1189.56 1151.76,1190.22 1153.82,1190.88 1155.88,1191.54 
  1157.94,1192.19 1160,1192.84 1162.06,1193.48 1164.12,1194.13 1166.18,1194.77 1168.24,1195.4 1170.3,1196.03 1172.36,1196.66 1174.42,1197.29 1176.48,1197.91 
  1178.54,1198.53 1180.6,1199.15 1182.66,1199.77 1184.72,1200.38 1186.78,1200.98 1188.84,1201.59 1190.9,1202.19 1192.96,1202.79 1195.02,1203.39 1197.08,1203.98 
  1199.14,1204.57 1201.2,1205.16 1203.26,1205.74 1205.32,1206.32 1207.38,1206.9 1209.44,1207.48 1211.5,1208.05 1213.56,1208.62 1215.62,1209.19 1217.68,1209.75 
  1219.74,1210.31 1221.8,1210.87 1223.86,1211.43 1225.92,1211.98 1227.98,1212.53 1230.04,1213.08 1232.1,1213.62 1234.16,1214.16 1236.22,1214.7 1238.28,1215.24 
  1240.34,1215.77 1242.4,1216.3 1244.46,1216.83 1246.52,1217.36 1248.58,1217.88 1250.64,1218.4 1252.7,1218.92 1254.76,1219.44 1256.82,1219.95 1258.88,1220.46 
  1260.94,1220.97 1263,1221.47 1265.06,1221.97 1267.12,1222.48 1269.18,1222.97 1271.24,1223.47 1273.3,1223.96 1275.36,1224.45 1277.42,1224.94 1279.48,1225.42 
  1281.54,1225.91 1283.6,1226.39 1285.66,1226.87 1287.72,1227.34 1289.78,1227.82 1291.84,1228.29 1293.9,1228.76 1295.96,1229.22 1298.02,1229.69 1300.08,1230.15 
  1302.14,1230.61 1304.2,1231.07 1306.26,1231.52 1308.32,1231.97 1310.38,1232.42 1312.44,1232.87 1314.5,1233.32 1316.56,1233.76 1318.62,1234.2 1320.68,1234.64 
  1322.74,1235.08 1324.8,1235.51 1326.86,1235.95 1328.92,1236.38 1330.98,1236.81 1333.04,1237.23 1335.1,1237.66 1337.16,1238.08 1339.22,1238.5 1341.28,1238.92 
  1343.34,1239.33 1345.4,1239.75 1347.46,1240.16 1349.52,1240.57 1351.58,1240.98 1353.64,1241.38 1355.7,1241.78 1357.76,1242.19 1359.82,1242.59 1361.88,1242.98 
  1363.94,1243.38 1366,1243.77 1368.06,1244.16 1370.12,1244.55 1372.18,1244.94 1374.24,1245.33 1376.3,1245.71 1378.36,1246.09 1380.42,1246.47 1382.48,1246.85 
  1384.54,1247.23 1386.6,1247.6 1388.66,1247.97 1390.72,1248.34 1392.78,1248.71 1394.84,1249.08 1396.9,1249.44 1398.96,1249.81 1401.02,1250.17 1403.08,1250.53 
  1405.14,1250.89 1407.2,1251.24 1409.26,1251.6 1411.32,1251.95 1413.38,1252.3 1415.44,1252.65 1417.5,1253 1419.56,1253.34 1421.62,1253.69 1423.68,1254.03 
  1425.74,1254.37 1427.8,1254.71 1429.86,1255.04 1431.92,1255.38 1433.98,1255.71 1436.04,1256.05 1438.1,1256.38 1440.16,1256.71 1442.22,1257.03 1444.28,1257.36 
  1446.34,1257.68 1448.4,1258 1450.46,1258.32 1452.52,1258.64 1454.58,1258.96 1456.64,1259.28 1458.7,1259.59 1460.76,1259.9 1462.82,1260.21 1464.88,1260.52 
  1466.94,1260.83 1469,1261.14 1471.06,1261.44 1473.12,1261.75 1475.18,1262.05 1477.24,1262.35 1479.3,1262.65 1481.36,1262.95 1483.42,1263.24 1485.48,1263.54 
  1487.54,1263.83 1489.6,1264.12 1491.66,1264.41 1493.72,1264.7 1495.78,1264.99 1497.84,1265.27 1499.9,1265.56 1501.96,1265.84 1504.02,1266.12 1506.08,1266.4 
  1508.14,1266.68 1510.2,1266.96 1512.26,1267.23 1514.32,1267.51 1516.38,1267.78 1518.44,1268.05 1520.5,1268.32 1522.56,1268.59 1524.62,1268.86 1526.68,1269.13 
  1528.74,1269.39 1530.8,1269.66 1532.86,1269.92 1534.92,1270.18 1536.98,1270.44 1539.04,1270.7 1541.1,1270.96 1543.16,1271.21 1545.22,1271.47 1547.28,1271.72 
  1549.34,1271.97 1551.4,1272.22 1553.46,1272.47 1555.52,1272.72 1557.58,1272.97 1559.64,1273.21 1561.7,1273.46 1563.76,1273.7 1565.82,1273.94 1567.88,1274.19 
  1569.94,1274.43 1572,1274.66 1574.06,1274.9 1576.12,1275.14 1578.18,1275.37 1580.24,1275.61 1582.3,1275.84 1584.36,1276.07 1586.42,1276.3 1588.48,1276.53 
  1590.54,1276.76 1592.6,1276.99 1594.66,1277.21 1596.72,1277.44 1598.78,1277.66 1600.84,1277.88 1602.9,1278.11 1604.96,1278.33 1607.02,1278.54 1609.08,1278.76 
  1611.14,1278.98 1613.2,1279.2 1615.26,1279.41 1617.32,1279.62 1619.38,1279.84 1621.44,1280.05 1623.5,1280.26 1625.56,1280.47 1627.62,1280.68 1629.68,1280.89 
  1631.74,1281.09 1633.8,1281.3 1635.86,1281.5 1637.92,1281.71 1639.98,1281.91 1642.04,1282.11 1644.1,1282.31 1646.16,1282.51 1648.22,1282.71 1650.28,1282.9 
  1652.34,1283.1 1654.4,1283.3 1656.46,1283.49 1658.52,1283.68 1660.58,1283.88 1662.64,1284.07 1664.71,1284.26 1666.77,1284.45 1668.83,1284.64 1670.89,1284.83 
  1672.95,1285.01 1675.01,1285.2 1677.07,1285.38 1679.13,1285.57 1681.19,1285.75 1683.25,1285.93 1685.31,1286.11 1687.37,1286.29 1689.43,1286.47 1691.49,1286.65 
  1693.55,1286.83 1695.61,1287.01 1697.67,1287.18 1699.73,1287.36 1701.79,1287.53 1703.85,1287.71 1705.91,1287.88 1707.97,1288.05 1710.03,1288.22 1712.09,1288.39 
  1714.15,1288.56 1716.21,1288.73 1718.27,1288.89 1720.33,1289.06 1722.39,1289.23 1724.45,1289.39 1726.51,1289.56 1728.57,1289.72 1730.63,1289.88 1732.69,1290.04 
  1734.75,1290.2 1736.81,1290.36 1738.87,1290.52 1740.93,1290.68 1742.99,1290.84 1745.05,1291 1747.11,1291.15 1749.17,1291.31 1751.23,1291.46 1753.29,1291.62 
  1755.35,1291.77 1757.41,1291.92 1759.47,1292.07 1761.53,1292.22 1763.59,1292.37 1765.65,1292.52 1767.71,1292.67 1769.77,1292.82 1771.83,1292.96 1773.89,1293.11 
  1775.95,1293.26 1778.01,1293.4 1780.07,1293.55 1782.13,1293.69 1784.19,1293.83 1786.25,1293.97 1788.31,1294.11 1790.37,1294.26 1792.43,1294.39 1794.49,1294.53 
  1796.55,1294.67 1798.61,1294.81 1800.67,1294.95 1802.73,1295.08 1804.79,1295.22 1806.85,1295.35 1808.91,1295.49 1810.97,1295.62 1813.03,1295.76 1815.09,1295.89 
  1817.15,1296.02 1819.21,1296.15 1821.27,1296.28 1823.33,1296.41 1825.39,1296.54 1827.45,1296.67 1829.51,1296.8 1831.57,1296.92 1833.63,1297.05 1835.69,1297.17 
  1837.75,1297.3 1839.81,1297.42 1841.87,1297.55 1843.93,1297.67 1845.99,1297.79 1848.05,1297.92 1850.11,1298.04 1852.17,1298.16 1854.23,1298.28 1856.29,1298.4 
  1858.35,1298.52 1860.41,1298.64 1862.47,1298.76 1864.53,1298.87 1866.59,1298.99 1868.65,1299.11 1870.71,1299.22 1872.77,1299.34 1874.83,1299.45 1876.89,1299.56 
  1878.95,1299.68 1881.01,1299.79 1883.07,1299.9 1885.13,1300.01 1887.19,1300.13 1889.25,1300.24 1891.31,1300.35 1893.37,1300.46 1895.43,1300.56 1897.49,1300.67 
  1899.55,1300.78 1901.61,1300.89 1903.67,1300.99 1905.73,1301.1 1907.79,1301.21 1909.85,1301.31 1911.91,1301.42 1913.97,1301.52 1916.03,1301.62 1918.09,1301.73 
  1920.15,1301.83 1922.21,1301.93 1924.27,1302.03 1926.33,1302.13 1928.39,1302.23 1930.45,1302.33 1932.51,1302.43 1934.57,1302.53 1936.63,1302.63 1938.69,1302.73 
  1940.75,1302.83 1942.81,1302.92 1944.87,1303.02 1946.93,1303.12 1948.99,1303.21 1951.05,1303.31 1953.11,1303.4 1955.17,1303.5 1957.23,1303.59 1959.29,1303.68 
  1961.35,1303.78 1963.41,1303.87 1965.47,1303.96 1967.53,1304.05 1969.59,1304.14 1971.65,1304.23 1973.71,1304.32 1975.77,1304.41 1977.83,1304.5 1979.89,1304.59 
  1981.95,1304.68 1984.01,1304.77 1986.07,1304.85 1988.13,1304.94 1990.19,1305.03 1992.25,1305.11 1994.31,1305.2 1996.37,1305.28 1998.43,1305.37 2000.49,1305.45 
  2002.55,1305.54 2004.61,1305.62 2006.67,1305.7 2008.73,1305.79 2010.79,1305.87 2012.85,1305.95 2014.91,1306.03 2016.97,1306.11 2019.03,1306.19 2021.09,1306.27 
  2023.15,1306.35 2025.21,1306.43 2027.27,1306.51 2029.33,1306.59 2031.39,1306.67 2033.45,1306.75 2035.51,1306.82 2037.57,1306.9 2039.63,1306.98 2041.69,1307.05 
  2043.75,1307.13 2045.81,1307.21 2047.87,1307.28 2049.93,1307.36 2051.99,1307.43 2054.05,1307.5 2056.11,1307.58 2058.17,1307.65 2060.23,1307.73 2062.29,1307.8 
  2064.35,1307.87 2066.41,1307.94 2068.47,1308.01 2070.53,1308.08 2072.59,1308.16 2074.65,1308.23 2076.71,1308.3 2078.77,1308.37 2080.83,1308.44 2082.89,1308.5 
  2084.95,1308.57 2087.01,1308.64 2089.07,1308.71 2091.13,1308.78 2093.19,1308.84 2095.25,1308.91 2097.31,1308.98 2099.37,1309.04 2101.43,1309.11 2103.49,1309.18 
  2105.55,1309.24 2107.61,1309.31 2109.67,1309.37 2111.73,1309.44 2113.79,1309.5 2115.85,1309.56 2117.91,1309.63 2119.97,1309.69 2122.03,1309.75 2124.09,1309.82 
  2126.15,1309.88 2128.21,1309.94 2130.27,1310 2132.33,1310.06 2134.39,1310.12 2136.45,1310.18 2138.51,1310.24 2140.57,1310.3 2142.63,1310.36 2144.69,1310.42 
  2146.75,1310.48 2148.81,1310.54 2150.87,1310.6 2152.93,1310.66 2154.99,1310.72 2157.05,1310.77 2159.11,1310.83 2161.17,1310.89 2163.23,1310.95 2165.29,1311 
  2167.35,1311.06 2169.41,1311.11 2171.47,1311.17 2173.53,1311.23 2175.59,1311.28 2177.65,1311.34 2179.71,1311.39 2181.77,1311.44 2183.83,1311.5 2185.89,1311.55 
  2187.95,1311.61 2190.01,1311.66 2192.07,1311.71 2194.13,1311.76 2196.19,1311.82 2198.25,1311.87 2200.31,1311.92 2202.37,1311.97 2204.43,1312.02 2206.49,1312.08 
  2208.55,1312.13 2210.61,1312.18 2212.67,1312.23 2214.73,1312.28 2216.79,1312.33 2218.85,1312.38 2220.91,1312.43 2222.97,1312.48 2225.03,1312.53 2227.09,1312.57 
  2229.15,1312.62 2231.21,1312.67 2233.27,1312.72 2235.33,1312.77 2237.39,1312.81 2239.45,1312.86 2241.51,1312.91 2243.57,1312.95 2245.63,1313 2247.69,1313.05 
  2249.75,1313.09 2251.81,1313.14 2253.87,1313.18 2255.93,1313.23 2257.99,1313.28 2260.05,1313.32 2262.11,1313.37 2264.17,1313.41 2266.23,1313.45 2268.29,1313.5 
  2270.35,1313.54 2272.41,1313.59 2274.47,1313.63 2276.53,1313.67 2278.59,1313.71 2280.65,1313.76 2282.71,1313.8 2284.77,1313.84 2286.83,1313.88 2288.89,1313.93 
  2290.95,1313.97 
  "/>
<polyline clip-path="url(#clip312)" style="stroke:#e26f46; stroke-linecap:butt; stroke-linejoin:round; stroke-width:4; stroke-opacity:1; fill:none" points="
  230.922,1445.72 232.982,1445.71 235.042,1445.71 237.102,1445.7 239.162,1445.69 241.222,1445.68 243.282,1445.67 245.343,1445.65 247.403,1445.63 249.463,1445.61 
  251.523,1445.58 253.583,1445.55 255.643,1445.52 257.703,1445.49 259.763,1445.45 261.823,1445.41 263.883,1445.37 265.943,1445.32 268.003,1445.28 270.063,1445.23 
  272.123,1445.17 274.183,1445.12 276.243,1445.06 278.303,1445 280.363,1444.93 282.423,1444.87 284.483,1444.8 286.543,1444.73 288.603,1444.65 290.663,1444.57 
  292.723,1444.49 294.783,1444.41 296.843,1444.33 298.903,1444.24 300.963,1444.15 303.023,1444.05 305.083,1443.96 307.144,1443.86 309.204,1443.76 311.264,1443.65 
  313.324,1443.54 315.384,1443.43 317.444,1443.32 319.504,1443.21 321.564,1443.09 323.624,1442.97 325.684,1442.84 327.744,1442.72 329.804,1442.59 331.864,1442.46 
  333.924,1442.32 335.984,1442.18 338.044,1442.04 340.104,1441.9 342.164,1441.76 344.224,1441.61 346.284,1441.46 348.344,1441.3 350.404,1441.15 352.464,1440.99 
  354.524,1440.83 356.584,1440.66 358.644,1440.5 360.704,1440.33 362.764,1440.15 364.824,1439.98 366.884,1439.8 368.944,1439.62 371.005,1439.44 373.065,1439.25 
  375.125,1439.06 377.185,1438.87 379.245,1438.68 381.305,1438.48 383.365,1438.28 385.425,1438.08 387.485,1437.87 389.545,1437.67 391.605,1437.46 393.665,1437.24 
  395.725,1437.03 397.785,1436.81 399.845,1436.59 401.905,1436.36 403.965,1436.14 406.025,1435.91 408.085,1435.67 410.145,1435.44 412.205,1435.2 414.265,1434.96 
  416.325,1434.72 418.385,1434.47 420.445,1434.22 422.505,1433.97 424.565,1433.72 426.625,1433.46 428.685,1433.2 430.745,1432.94 432.805,1432.68 434.866,1432.41 
  436.926,1432.14 438.986,1431.87 441.046,1431.59 443.106,1431.31 445.166,1431.03 447.226,1430.75 449.286,1430.46 451.346,1430.17 453.406,1429.88 455.466,1429.58 
  457.526,1429.29 459.586,1428.99 461.646,1428.68 463.706,1428.38 465.766,1428.07 467.826,1427.76 469.886,1427.45 471.946,1427.13 474.006,1426.81 476.066,1426.49 
  478.126,1426.16 480.186,1425.84 482.246,1425.51 484.306,1425.17 486.366,1424.84 488.426,1424.5 490.486,1424.16 492.546,1423.82 494.606,1423.47 496.667,1423.12 
  498.727,1422.77 500.787,1422.42 502.847,1422.06 504.907,1421.7 506.967,1421.34 509.027,1420.97 511.087,1420.6 513.147,1420.23 515.207,1419.86 517.267,1419.48 
  519.327,1419.1 521.387,1418.72 523.447,1418.34 525.507,1417.95 527.567,1417.56 529.627,1417.17 531.687,1416.77 533.747,1416.38 535.807,1415.98 537.867,1415.57 
  539.927,1415.17 541.987,1414.76 544.047,1414.35 546.107,1413.93 548.167,1413.52 550.227,1413.1 552.287,1412.67 554.347,1412.25 556.407,1411.82 558.467,1411.39 
  560.528,1410.96 562.588,1410.52 564.648,1410.08 566.708,1409.64 568.768,1409.2 570.828,1408.75 572.888,1408.3 574.948,1407.85 577.008,1407.39 579.068,1406.94 
  581.128,1406.48 583.188,1406.01 585.248,1405.55 587.308,1405.08 589.368,1404.61 591.428,1404.13 593.488,1403.66 595.548,1403.18 597.608,1402.7 599.668,1402.21 
  601.728,1401.72 603.788,1401.23 605.848,1400.74 607.908,1400.25 609.968,1399.75 612.028,1399.25 614.088,1398.74 616.148,1398.24 618.208,1397.73 620.268,1397.22 
  622.328,1396.7 624.389,1396.18 626.449,1395.66 628.509,1395.14 630.569,1394.62 632.629,1394.09 634.689,1393.56 636.749,1393.02 638.809,1392.49 640.869,1391.95 
  642.929,1391.41 644.989,1390.86 647.049,1390.31 649.109,1389.76 651.169,1389.21 653.229,1388.66 655.289,1388.1 657.349,1387.54 659.409,1386.97 661.469,1386.41 
  663.529,1385.84 665.589,1385.27 667.649,1384.69 669.709,1384.12 671.769,1383.54 673.829,1382.95 675.889,1382.37 677.949,1381.78 680.009,1381.19 682.069,1380.6 
  684.129,1380 686.19,1379.4 688.25,1378.8 690.31,1378.2 692.37,1377.59 694.43,1376.98 696.49,1376.37 698.55,1375.75 700.61,1375.13 702.67,1374.51 
  704.73,1373.89 706.79,1373.27 708.85,1372.64 710.91,1372.01 712.97,1371.37 715.03,1370.73 717.09,1370.1 719.15,1369.45 721.21,1368.81 723.27,1368.16 
  725.33,1367.51 727.39,1366.86 729.45,1366.2 731.51,1365.54 733.57,1364.88 735.63,1364.22 737.69,1363.55 739.75,1362.88 741.81,1362.21 743.87,1361.53 
  745.93,1360.86 747.99,1360.18 750.051,1359.49 752.111,1358.81 754.171,1358.12 756.231,1357.43 758.291,1356.73 760.351,1356.04 762.411,1355.34 764.471,1354.64 
  766.531,1353.93 768.591,1353.23 770.651,1352.52 772.711,1351.8 774.771,1351.09 776.831,1350.37 778.891,1349.65 780.951,1348.92 783.011,1348.2 785.071,1347.47 
  787.131,1346.74 789.191,1346 791.251,1345.26 793.311,1344.52 795.371,1343.78 797.431,1343.04 799.491,1342.29 801.551,1341.54 803.611,1340.78 805.671,1340.03 
  807.731,1339.27 809.791,1338.51 811.851,1337.74 813.912,1336.98 815.972,1336.21 818.032,1335.43 820.092,1334.66 822.152,1333.88 824.212,1333.1 826.272,1332.32 
  828.332,1331.53 830.392,1330.74 832.452,1329.95 834.512,1329.16 836.572,1328.36 838.632,1327.56 840.692,1326.76 842.752,1325.95 844.812,1325.14 846.872,1324.33 
  848.932,1323.52 850.992,1322.7 853.052,1321.88 855.112,1321.06 857.172,1320.24 859.232,1319.41 861.292,1318.58 863.352,1317.75 865.412,1316.92 867.472,1316.08 
  869.532,1315.24 871.592,1314.39 873.652,1313.55 875.713,1312.7 877.773,1311.85 879.833,1310.99 881.893,1310.14 883.953,1309.28 886.013,1308.42 888.073,1307.55 
  890.133,1306.68 892.193,1305.81 894.253,1304.94 896.313,1304.06 898.373,1303.19 900.433,1302.3 902.493,1301.42 904.553,1300.53 906.613,1299.64 908.673,1298.75 
  910.733,1297.86 912.793,1296.96 914.853,1296.06 916.913,1295.16 918.973,1294.25 921.033,1293.34 923.093,1292.43 925.153,1291.52 927.213,1290.6 929.273,1289.68 
  931.333,1288.76 933.393,1287.84 935.453,1286.91 937.513,1285.98 939.574,1285.05 941.634,1284.11 943.694,1283.17 945.754,1282.23 947.814,1281.29 949.874,1280.34 
  951.934,1279.39 953.994,1278.44 956.054,1277.49 958.114,1276.53 960.174,1275.57 962.234,1274.61 964.294,1273.64 966.354,1272.67 968.414,1271.7 970.474,1270.73 
  972.534,1269.75 974.594,1268.77 976.654,1267.79 978.714,1266.81 980.774,1265.82 982.834,1264.83 984.894,1263.84 986.954,1262.84 989.014,1261.85 991.074,1260.84 
  993.134,1259.84 995.194,1258.84 997.254,1257.83 999.314,1256.81 1001.37,1255.8 1003.43,1254.78 1005.49,1253.76 1007.55,1252.74 1009.61,1251.72 1011.67,1250.69 
  1013.73,1249.66 1015.79,1248.62 1017.85,1247.59 1019.91,1246.55 1021.97,1245.51 1024.03,1244.46 1026.09,1243.42 1028.15,1242.37 1030.21,1241.32 1032.27,1240.26 
  1034.34,1239.2 1036.4,1238.14 1038.46,1237.08 1040.52,1236.01 1042.58,1234.95 1044.64,1233.87 1046.7,1232.8 1048.76,1231.72 1050.82,1230.64 1052.88,1229.56 
  1054.94,1228.48 1057,1227.39 1059.06,1226.3 1061.12,1225.21 1063.18,1224.11 1065.24,1223.01 1067.3,1221.91 1069.36,1220.81 1071.42,1219.7 1073.48,1218.59 
  1075.54,1217.48 1077.6,1216.36 1079.66,1215.25 1081.72,1214.13 1083.78,1213 1085.84,1211.88 1087.9,1210.75 1089.96,1209.62 1092.02,1208.49 1094.08,1207.35 
  1096.14,1206.21 1098.2,1205.07 1100.26,1203.92 1102.32,1202.78 1104.38,1201.63 1106.44,1200.47 1108.5,1199.32 1110.56,1198.16 1112.62,1197 1114.68,1195.84 
  1116.74,1194.67 1118.8,1193.5 1120.86,1192.33 1122.92,1191.15 1124.98,1189.98 1127.04,1188.8 1129.1,1187.61 1131.16,1186.43 1133.22,1185.24 1135.28,1184.05 
  1137.34,1182.86 1139.4,1181.66 1141.46,1180.46 1143.52,1179.26 1145.58,1178.06 1147.64,1176.85 1149.7,1175.64 1151.76,1174.43 1153.82,1173.21 1155.88,1171.99 
  1157.94,1170.77 1160,1169.55 1162.06,1168.32 1164.12,1167.1 1166.18,1165.86 1168.24,1164.63 1170.3,1163.39 1172.36,1162.15 1174.42,1160.91 1176.48,1159.67 
  1178.54,1158.42 1180.6,1157.17 1182.66,1155.91 1184.72,1154.66 1186.78,1153.4 1188.84,1152.14 1190.9,1150.87 1192.96,1149.61 1195.02,1148.34 1197.08,1147.07 
  1199.14,1145.79 1201.2,1144.51 1203.26,1143.23 1205.32,1141.95 1207.38,1140.66 1209.44,1139.38 1211.5,1138.08 1213.56,1136.79 1215.62,1135.49 1217.68,1134.19 
  1219.74,1132.89 1221.8,1131.59 1223.86,1130.28 1225.92,1128.97 1227.98,1127.66 1230.04,1126.34 1232.1,1125.02 1234.16,1123.7 1236.22,1122.38 1238.28,1121.05 
  1240.34,1119.72 1242.4,1118.39 1244.46,1117.06 1246.52,1115.72 1248.58,1114.38 1250.64,1113.04 1252.7,1111.69 1254.76,1110.34 1256.82,1108.99 1258.88,1107.64 
  1260.94,1106.28 1263,1104.92 1265.06,1103.56 1267.12,1102.2 1269.18,1100.83 1271.24,1099.46 1273.3,1098.09 1275.36,1096.71 1277.42,1095.33 1279.48,1093.95 
  1281.54,1092.57 1283.6,1091.18 1285.66,1089.79 1287.72,1088.4 1289.78,1087.01 1291.84,1085.61 1293.9,1084.21 1295.96,1082.81 1298.02,1081.4 1300.08,1079.99 
  1302.14,1078.58 1304.2,1077.17 1306.26,1075.75 1308.32,1074.33 1310.38,1072.91 1312.44,1071.49 1314.5,1070.06 1316.56,1068.63 1318.62,1067.2 1320.68,1065.76 
  1322.74,1064.33 1324.8,1062.89 1326.86,1061.44 1328.92,1060 1330.98,1058.55 1333.04,1057.1 1335.1,1055.64 1337.16,1054.19 1339.22,1052.73 1341.28,1051.26 
  1343.34,1049.8 1345.4,1048.33 1347.46,1046.86 1349.52,1045.39 1351.58,1043.91 1353.64,1042.43 1355.7,1040.95 1357.76,1039.47 1359.82,1037.98 1361.88,1036.49 
  1363.94,1035 1366,1033.5 1368.06,1032.01 1370.12,1030.51 1372.18,1029 1374.24,1027.5 1376.3,1025.99 1378.36,1024.48 1380.42,1022.96 1382.48,1021.45 
  1384.54,1019.93 1386.6,1018.41 1388.66,1016.88 1390.72,1015.35 1392.78,1013.82 1394.84,1012.29 1396.9,1010.76 1398.96,1009.22 1401.02,1007.68 1403.08,1006.13 
  1405.14,1004.59 1407.2,1003.04 1409.26,1001.49 1411.32,999.93 1413.38,998.373 1415.44,996.813 1417.5,995.25 1419.56,993.685 1421.62,992.117 1423.68,990.546 
  1425.74,988.972 1427.8,987.396 1429.86,985.817 1431.92,984.235 1433.98,982.651 1436.04,981.063 1438.1,979.473 1440.16,977.881 1442.22,976.285 1444.28,974.687 
  1446.34,973.087 1448.4,971.483 1450.46,969.877 1452.52,968.268 1454.58,966.656 1456.64,965.042 1458.7,963.425 1460.76,961.805 1462.82,960.183 1464.88,958.557 
  1466.94,956.93 1469,955.299 1471.06,953.665 1473.12,952.029 1475.18,950.391 1477.24,948.749 1479.3,947.105 1481.36,945.458 1483.42,943.808 1485.48,942.156 
  1487.54,940.501 1489.6,938.843 1491.66,937.183 1493.72,935.519 1495.78,933.853 1497.84,932.185 1499.9,930.513 1501.96,928.839 1504.02,927.162 1506.08,925.483 
  1508.14,923.801 1510.2,922.116 1512.26,920.428 1514.32,918.738 1516.38,917.045 1518.44,915.349 1520.5,913.65 1522.56,911.949 1524.62,910.245 1526.68,908.538 
  1528.74,906.829 1530.8,905.117 1532.86,903.402 1534.92,901.684 1536.98,899.964 1539.04,898.241 1541.1,896.516 1543.16,894.787 1545.22,893.056 1547.28,891.322 
  1549.34,889.586 1551.4,887.846 1553.46,886.104 1555.52,884.36 1557.58,882.612 1559.64,880.862 1561.7,879.109 1563.76,877.354 1565.82,875.595 1567.88,873.834 
  1569.94,872.071 1572,870.304 1574.06,868.535 1576.12,866.763 1578.18,864.989 1580.24,863.212 1582.3,861.432 1584.36,859.649 1586.42,857.863 1588.48,856.075 
  1590.54,854.284 1592.6,852.491 1594.66,850.695 1596.72,848.896 1598.78,847.094 1600.84,845.289 1602.9,843.482 1604.96,841.672 1607.02,839.86 1609.08,838.044 
  1611.14,836.226 1613.2,834.406 1615.26,832.582 1617.32,830.756 1619.38,828.927 1621.44,827.096 1623.5,825.261 1625.56,823.424 1627.62,821.585 1629.68,819.742 
  1631.74,817.897 1633.8,816.049 1635.86,814.199 1637.92,812.345 1639.98,810.489 1642.04,808.63 1644.1,806.769 1646.16,804.905 1648.22,803.038 1650.28,801.168 
  1652.34,799.296 1654.4,797.421 1656.46,795.543 1658.52,793.663 1660.58,791.78 1662.64,789.894 1664.71,788.005 1666.77,786.114 1668.83,784.22 1670.89,782.323 
  1672.95,780.423 1675.01,778.521 1677.07,776.616 1679.13,774.709 1681.19,772.798 1683.25,770.885 1685.31,768.969 1687.37,767.051 1689.43,765.13 1691.49,763.206 
  1693.55,761.279 1695.61,759.35 1697.67,757.418 1699.73,755.483 1701.79,753.546 1703.85,751.605 1705.91,749.662 1707.97,747.717 1710.03,745.768 1712.09,743.817 
  1714.15,741.864 1716.21,739.907 1718.27,737.948 1720.33,735.986 1722.39,734.021 1724.45,732.054 1726.51,730.084 1728.57,728.111 1730.63,726.136 1732.69,724.157 
  1734.75,722.176 1736.81,720.193 1738.87,718.206 1740.93,716.217 1742.99,714.225 1745.05,712.231 1747.11,710.234 1749.17,708.234 1751.23,706.231 1753.29,704.226 
  1755.35,702.218 1757.41,700.207 1759.47,698.193 1761.53,696.177 1763.59,694.158 1765.65,692.136 1767.71,690.112 1769.77,688.085 1771.83,686.055 1773.89,684.023 
  1775.95,681.987 1778.01,679.949 1780.07,677.909 1782.13,675.865 1784.19,673.819 1786.25,671.77 1788.31,669.719 1790.37,667.664 1792.43,665.608 1794.49,663.548 
  1796.55,661.485 1798.61,659.42 1800.67,657.352 1802.73,655.282 1804.79,653.209 1806.85,651.133 1808.91,649.054 1810.97,646.973 1813.03,644.888 1815.09,642.802 
  1817.15,640.712 1819.21,638.62 1821.27,636.525 1823.33,634.427 1825.39,632.327 1827.45,630.223 1829.51,628.118 1831.57,626.009 1833.63,623.898 1835.69,621.784 
  1837.75,619.667 1839.81,617.548 1841.87,615.425 1843.93,613.301 1845.99,611.173 1848.05,609.043 1850.11,606.91 1852.17,604.774 1854.23,602.636 1856.29,600.494 
  1858.35,598.351 1860.41,596.204 1862.47,594.055 1864.53,591.903 1866.59,589.748 1868.65,587.59 1870.71,585.43 1872.77,583.267 1874.83,581.102 1876.89,578.933 
  1878.95,576.762 1881.01,574.589 1883.07,572.412 1885.13,570.233 1887.19,568.051 1889.25,565.867 1891.31,563.679 1893.37,561.489 1895.43,559.297 1897.49,557.101 
  1899.55,554.903 1901.61,552.702 1903.67,550.498 1905.73,548.292 1907.79,546.083 1909.85,543.871 1911.91,541.657 1913.97,539.44 1916.03,537.22 1918.09,534.997 
  1920.15,532.772 1922.21,530.544 1924.27,528.313 1926.33,526.079 1928.39,523.843 1930.45,521.604 1932.51,519.363 1934.57,517.118 1936.63,514.871 1938.69,512.621 
  1940.75,510.369 1942.81,508.114 1944.87,505.856 1946.93,503.595 1948.99,501.332 1951.05,499.066 1953.11,496.797 1955.17,494.526 1957.23,492.251 1959.29,489.974 
  1961.35,487.695 1963.41,485.412 1965.47,483.127 1967.53,480.84 1969.59,478.549 1971.65,476.256 1973.71,473.96 1975.77,471.661 1977.83,469.36 1979.89,467.056 
  1981.95,464.749 1984.01,462.439 1986.07,460.127 1988.13,457.812 1990.19,455.495 1992.25,453.174 1994.31,450.851 1996.37,448.525 1998.43,446.197 2000.49,443.866 
  2002.55,441.532 2004.61,439.195 2006.67,436.856 2008.73,434.513 2010.79,432.169 2012.85,429.821 2014.91,427.471 2016.97,425.118 2019.03,422.762 2021.09,420.404 
  2023.15,418.043 2025.21,415.679 2027.27,413.312 2029.33,410.943 2031.39,408.571 2033.45,406.196 2035.51,403.819 2037.57,401.439 2039.63,399.056 2041.69,396.671 
  2043.75,394.282 2045.81,391.891 2047.87,389.498 2049.93,387.101 2051.99,384.702 2054.05,382.3 2056.11,379.896 2058.17,377.488 2060.23,375.078 2062.29,372.666 
  2064.35,370.25 2066.41,367.832 2068.47,365.411 2070.53,362.988 2072.59,360.561 2074.65,358.132 2076.71,355.701 2078.77,353.266 2080.83,350.829 2082.89,348.389 
  2084.95,345.947 2087.01,343.501 2089.07,341.053 2091.13,338.603 2093.19,336.149 2095.25,333.693 2097.31,331.234 2099.37,328.773 2101.43,326.308 2103.49,323.841 
  2105.55,321.372 2107.61,318.899 2109.67,316.424 2111.73,313.946 2113.79,311.466 2115.85,308.982 2117.91,306.496 2119.97,304.008 2122.03,301.516 2124.09,299.022 
  2126.15,296.525 2128.21,294.025 2130.27,291.523 2132.33,289.018 2134.39,286.51 2136.45,284 2138.51,281.487 2140.57,278.971 2142.63,276.452 2144.69,273.931 
  2146.75,271.407 2148.81,268.88 2150.87,266.351 2152.93,263.818 2154.99,261.284 2157.05,258.746 2159.11,256.206 2161.17,253.663 2163.23,251.117 2165.29,248.568 
  2167.35,246.017 2169.41,243.463 2171.47,240.907 2173.53,238.347 2175.59,235.785 2177.65,233.22 2179.71,230.653 2181.77,228.083 2183.83,225.51 2185.89,222.934 
  2187.95,220.356 2190.01,217.775 2192.07,215.191 2194.13,212.605 2196.19,210.015 2198.25,207.423 2200.31,204.829 2202.37,202.231 2204.43,199.631 2206.49,197.029 
  2208.55,194.423 2210.61,191.815 2212.67,189.204 2214.73,186.59 2216.79,183.974 2218.85,181.355 2220.91,178.733 2222.97,176.109 2225.03,173.481 2227.09,170.851 
  2229.15,168.219 2231.21,165.583 2233.27,162.945 2235.33,160.304 2237.39,157.661 2239.45,155.015 2241.51,152.366 2243.57,149.714 2245.63,147.06 2247.69,144.403 
  2249.75,141.743 2251.81,139.08 2253.87,136.415 2255.93,133.747 2257.99,131.076 2260.05,128.403 2262.11,125.727 2264.17,123.048 2266.23,120.367 2268.29,117.682 
  2270.35,114.995 2272.41,112.306 2274.47,109.613 2276.53,106.918 2278.59,104.22 2280.65,101.52 2282.71,98.8165 2284.77,96.1105 2286.83,93.4018 2288.89,90.6904 
  2290.95,87.9763 
  "/>
<polyline clip-path="url(#clip312)" style="stroke:#3da44d; stroke-linecap:butt; stroke-linejoin:round; stroke-width:4; stroke-opacity:1; fill:none" points="
  230.922,574.911 232.982,576.762 235.042,578.614 237.102,580.465 239.162,582.317 241.222,584.168 243.282,586.02 245.343,587.871 247.403,589.723 249.463,591.574 
  251.523,593.426 253.583,595.277 255.643,597.129 257.703,598.98 259.763,600.831 261.823,602.683 263.883,604.534 265.943,606.386 268.003,608.237 270.063,610.089 
  272.123,611.94 274.183,613.792 276.243,615.643 278.303,617.495 280.363,619.346 282.423,621.198 284.483,623.049 286.543,624.9 288.603,626.752 290.663,628.603 
  292.723,630.455 294.783,632.306 296.843,634.158 298.903,636.009 300.963,637.861 303.023,639.712 305.083,641.564 307.144,643.415 309.204,645.267 311.264,647.118 
  313.324,648.97 315.384,650.821 317.444,652.672 319.504,654.524 321.564,656.375 323.624,658.227 325.684,660.078 327.744,661.93 329.804,663.781 331.864,665.633 
  333.924,667.484 335.984,669.336 338.044,671.187 340.104,673.039 342.164,674.89 344.224,676.741 346.284,678.593 348.344,680.444 350.404,682.296 352.464,684.147 
  354.524,685.999 356.584,687.85 358.644,689.702 360.704,691.553 362.764,693.405 364.824,695.256 366.884,697.108 368.944,698.959 371.005,700.81 373.065,702.662 
  375.125,704.513 377.185,706.365 379.245,708.216 381.305,710.068 383.365,711.919 385.425,713.771 387.485,715.622 389.545,717.474 391.605,719.325 393.665,721.177 
  395.725,723.028 397.785,724.879 399.845,726.731 401.905,728.582 403.965,730.434 406.025,732.285 408.085,734.137 410.145,735.988 412.205,737.84 414.265,739.691 
  416.325,741.543 418.385,743.394 420.445,745.246 422.505,747.097 424.565,748.949 426.625,750.8 428.685,752.651 430.745,754.503 432.805,756.354 434.866,758.206 
  436.926,760.057 438.986,761.909 441.046,763.76 443.106,765.612 445.166,767.463 447.226,769.315 449.286,771.166 451.346,773.018 453.406,774.869 455.466,776.72 
  457.526,778.572 459.586,780.423 461.646,782.275 463.706,784.126 465.766,785.978 467.826,787.829 469.886,789.681 471.946,791.532 474.006,793.384 476.066,795.235 
  478.126,797.087 480.186,798.938 482.246,800.789 484.306,802.641 486.366,804.492 488.426,806.344 490.486,808.195 492.546,810.047 494.606,811.898 496.667,813.75 
  498.727,815.601 500.787,817.453 502.847,819.304 504.907,821.156 506.967,823.007 509.027,824.858 511.087,826.71 513.147,828.561 515.207,830.413 517.267,832.264 
  519.327,834.116 521.387,835.967 523.447,837.819 525.507,839.67 527.567,841.522 529.627,843.373 531.687,845.225 533.747,847.076 535.807,848.928 537.867,850.779 
  539.927,852.63 541.987,854.482 544.047,856.333 546.107,858.185 548.167,860.036 550.227,861.888 552.287,863.739 554.347,865.591 556.407,867.442 558.467,869.294 
  560.528,871.145 562.588,872.997 564.648,874.848 566.708,876.699 568.768,878.551 570.828,880.402 572.888,882.254 574.948,884.105 577.008,885.957 579.068,887.808 
  581.128,889.66 583.188,891.511 585.248,893.363 587.308,895.214 589.368,897.066 591.428,898.917 593.488,900.768 595.548,902.62 597.608,904.471 599.668,906.323 
  601.728,908.174 603.788,910.026 605.848,911.877 607.908,913.729 609.968,915.58 612.028,917.432 614.088,919.283 616.148,921.135 618.208,922.986 620.268,924.837 
  622.328,926.689 624.389,928.54 626.449,930.392 628.509,932.243 630.569,934.095 632.629,935.946 634.689,937.798 636.749,939.649 638.809,941.501 640.869,943.352 
  642.929,945.204 644.989,947.055 647.049,948.906 649.109,950.758 651.169,952.609 653.229,954.461 655.289,956.312 657.349,958.164 659.409,960.015 661.469,961.867 
  663.529,963.718 665.589,965.57 667.649,967.421 669.709,969.273 671.769,971.124 673.829,972.976 675.889,974.827 677.949,976.678 680.009,978.53 682.069,980.381 
  684.129,982.233 686.19,984.084 688.25,985.936 690.31,987.787 692.37,989.639 694.43,991.49 696.49,993.342 698.55,995.193 700.61,997.045 702.67,998.896 
  704.73,1000.75 706.79,1002.6 708.85,1004.45 710.91,1006.3 712.97,1008.15 715.03,1010 717.09,1011.86 719.15,1013.71 721.21,1015.56 723.27,1017.41 
  725.33,1019.26 727.39,1021.11 729.45,1022.97 731.51,1024.82 733.57,1026.67 735.63,1028.52 737.69,1030.37 739.75,1032.22 741.81,1034.07 743.87,1035.93 
  745.93,1037.78 747.99,1039.63 750.051,1041.48 752.111,1043.33 754.171,1045.18 756.231,1047.03 758.291,1048.89 760.351,1050.74 762.411,1052.59 764.471,1054.44 
  766.531,1056.29 768.591,1058.14 770.651,1059.99 772.711,1061.85 774.771,1063.7 776.831,1065.55 778.891,1067.4 780.951,1069.25 783.011,1071.1 785.071,1072.95 
  787.131,1074.81 789.191,1076.66 791.251,1078.51 793.311,1080.36 795.371,1082.21 797.431,1084.06 799.491,1085.91 801.551,1087.77 803.611,1089.62 805.671,1091.47 
  807.731,1093.32 809.791,1095.17 811.851,1097.02 813.912,1098.87 815.972,1100.73 818.032,1102.58 820.092,1104.43 822.152,1106.28 824.212,1108.13 826.272,1109.98 
  828.332,1111.84 830.392,1113.69 832.452,1115.54 834.512,1117.39 836.572,1119.24 838.632,1121.09 840.692,1122.94 842.752,1124.8 844.812,1126.65 846.872,1128.5 
  848.932,1130.35 850.992,1132.2 853.052,1134.05 855.112,1135.9 857.172,1137.76 859.232,1139.61 861.292,1141.46 863.352,1143.31 865.412,1145.16 867.472,1147.01 
  869.532,1148.86 871.592,1150.72 873.652,1152.57 875.713,1154.42 877.773,1156.27 879.833,1158.12 881.893,1159.97 883.953,1161.82 886.013,1163.68 888.073,1165.53 
  890.133,1167.38 892.193,1169.23 894.253,1171.08 896.313,1172.93 898.373,1174.78 900.433,1176.64 902.493,1178.49 904.553,1180.34 906.613,1182.19 908.673,1184.04 
  910.733,1185.89 912.793,1187.75 914.853,1189.6 916.913,1191.45 918.973,1193.3 921.033,1195.15 923.093,1197 925.153,1198.85 927.213,1200.71 929.273,1202.56 
  931.333,1204.41 933.393,1206.26 935.453,1208.11 937.513,1209.96 939.574,1211.81 941.634,1213.67 943.694,1215.52 945.754,1217.37 947.814,1219.22 949.874,1221.07 
  951.934,1222.92 953.994,1224.77 956.054,1226.63 958.114,1228.48 960.174,1230.33 962.234,1232.18 964.294,1234.03 966.354,1235.88 968.414,1237.73 970.474,1239.59 
  972.534,1241.44 974.594,1243.29 976.654,1245.14 978.714,1246.99 980.774,1248.84 982.834,1250.69 984.894,1252.55 986.954,1254.4 989.014,1256.25 991.074,1258.1 
  993.134,1259.95 995.194,1261.8 997.254,1263.66 999.314,1265.51 1001.37,1267.36 1003.43,1269.21 1005.49,1271.06 1007.55,1272.91 1009.61,1274.76 1011.67,1276.62 
  1013.73,1278.47 1015.79,1280.32 1017.85,1282.17 1019.91,1284.02 1021.97,1285.87 1024.03,1287.72 1026.09,1289.58 1028.15,1291.43 1030.21,1293.28 1032.27,1295.13 
  1034.34,1296.98 1036.4,1298.83 1038.46,1300.68 1040.52,1302.54 1042.58,1304.39 1044.64,1306.24 1046.7,1308.09 1048.76,1309.94 1050.82,1311.79 1052.88,1313.64 
  1054.94,1315.5 1057,1317.35 1059.06,1319.2 1061.12,1321.05 1063.18,1322.9 1065.24,1324.75 1067.3,1326.6 1069.36,1328.46 1071.42,1330.31 1073.48,1332.16 
  1075.54,1334.01 1077.6,1335.86 1079.66,1337.71 1081.72,1339.57 1083.78,1341.42 1085.84,1343.27 1087.9,1345.12 1089.96,1346.97 1092.02,1348.82 1094.08,1350.67 
  1096.14,1352.53 1098.2,1354.38 1100.26,1356.23 1102.32,1358.08 1104.38,1359.93 1106.44,1361.78 1108.5,1363.63 1110.56,1365.49 1112.62,1367.34 1114.68,1369.19 
  1116.74,1371.04 1118.8,1372.89 1120.86,1374.74 1122.92,1376.59 1124.98,1378.45 1127.04,1380.3 1129.1,1382.15 1131.16,1384 1133.22,1382.15 1135.28,1380.3 
  1137.34,1378.45 1139.4,1376.59 1141.46,1374.74 1143.52,1372.89 1145.58,1371.04 1147.64,1369.19 1149.7,1367.34 1151.76,1365.49 1153.82,1363.63 1155.88,1361.78 
  1157.94,1359.93 1160,1358.08 1162.06,1356.23 1164.12,1354.38 1166.18,1352.53 1168.24,1350.67 1170.3,1348.82 1172.36,1346.97 1174.42,1345.12 1176.48,1343.27 
  1178.54,1341.42 1180.6,1339.57 1182.66,1337.71 1184.72,1335.86 1186.78,1334.01 1188.84,1332.16 1190.9,1330.31 1192.96,1328.46 1195.02,1326.6 1197.08,1324.75 
  1199.14,1322.9 1201.2,1321.05 1203.26,1319.2 1205.32,1317.35 1207.38,1315.5 1209.44,1313.64 1211.5,1311.79 1213.56,1309.94 1215.62,1308.09 1217.68,1306.24 
  1219.74,1304.39 1221.8,1302.54 1223.86,1300.68 1225.92,1298.83 1227.98,1296.98 1230.04,1295.13 1232.1,1293.28 1234.16,1291.43 1236.22,1289.58 1238.28,1287.72 
  1240.34,1285.87 1242.4,1284.02 1244.46,1282.17 1246.52,1280.32 1248.58,1278.47 1250.64,1276.62 1252.7,1274.76 1254.76,1272.91 1256.82,1271.06 1258.88,1269.21 
  1260.94,1267.36 1263,1265.51 1265.06,1263.66 1267.12,1261.8 1269.18,1259.95 1271.24,1258.1 1273.3,1256.25 1275.36,1254.4 1277.42,1252.55 1279.48,1250.69 
  1281.54,1248.84 1283.6,1246.99 1285.66,1245.14 1287.72,1243.29 1289.78,1241.44 1291.84,1239.59 1293.9,1237.73 1295.96,1235.88 1298.02,1234.03 1300.08,1232.18 
  1302.14,1230.33 1304.2,1228.48 1306.26,1226.63 1308.32,1224.77 1310.38,1222.92 1312.44,1221.07 1314.5,1219.22 1316.56,1217.37 1318.62,1215.52 1320.68,1213.67 
  1322.74,1211.81 1324.8,1209.96 1326.86,1208.11 1328.92,1206.26 1330.98,1204.41 1333.04,1202.56 1335.1,1200.71 1337.16,1198.85 1339.22,1197 1341.28,1195.15 
  1343.34,1193.3 1345.4,1191.45 1347.46,1189.6 1349.52,1187.75 1351.58,1185.89 1353.64,1184.04 1355.7,1182.19 1357.76,1180.34 1359.82,1178.49 1361.88,1176.64 
  1363.94,1174.78 1366,1172.93 1368.06,1171.08 1370.12,1169.23 1372.18,1167.38 1374.24,1165.53 1376.3,1163.68 1378.36,1161.82 1380.42,1159.97 1382.48,1158.12 
  1384.54,1156.27 1386.6,1154.42 1388.66,1152.57 1390.72,1150.72 1392.78,1148.86 1394.84,1147.01 1396.9,1145.16 1398.96,1143.31 1401.02,1141.46 1403.08,1139.61 
  1405.14,1137.76 1407.2,1135.9 1409.26,1134.05 1411.32,1132.2 1413.38,1130.35 1415.44,1128.5 1417.5,1126.65 1419.56,1124.8 1421.62,1122.94 1423.68,1121.09 
  1425.74,1119.24 1427.8,1117.39 1429.86,1115.54 1431.92,1113.69 1433.98,1111.84 1436.04,1109.98 1438.1,1108.13 1440.16,1106.28 1442.22,1104.43 1444.28,1102.58 
  1446.34,1100.73 1448.4,1098.87 1450.46,1097.02 1452.52,1095.17 1454.58,1093.32 1456.64,1091.47 1458.7,1089.62 1460.76,1087.77 1462.82,1085.91 1464.88,1084.06 
  1466.94,1082.21 1469,1080.36 1471.06,1078.51 1473.12,1076.66 1475.18,1074.81 1477.24,1072.95 1479.3,1071.1 1481.36,1069.25 1483.42,1067.4 1485.48,1065.55 
  1487.54,1063.7 1489.6,1061.85 1491.66,1059.99 1493.72,1058.14 1495.78,1056.29 1497.84,1054.44 1499.9,1052.59 1501.96,1050.74 1504.02,1048.89 1506.08,1047.03 
  1508.14,1045.18 1510.2,1043.33 1512.26,1041.48 1514.32,1039.63 1516.38,1037.78 1518.44,1035.93 1520.5,1034.07 1522.56,1032.22 1524.62,1030.37 1526.68,1028.52 
  1528.74,1026.67 1530.8,1024.82 1532.86,1022.97 1534.92,1021.11 1536.98,1019.26 1539.04,1017.41 1541.1,1015.56 1543.16,1013.71 1545.22,1011.86 1547.28,1010 
  1549.34,1008.15 1551.4,1006.3 1553.46,1004.45 1555.52,1002.6 1557.58,1000.75 1559.64,998.896 1561.7,997.045 1563.76,995.193 1565.82,993.342 1567.88,991.49 
  1569.94,989.639 1572,987.787 1574.06,985.936 1576.12,984.084 1578.18,982.233 1580.24,980.381 1582.3,978.53 1584.36,976.678 1586.42,974.827 1588.48,972.976 
  1590.54,971.124 1592.6,969.273 1594.66,967.421 1596.72,965.57 1598.78,963.718 1600.84,961.867 1602.9,960.015 1604.96,958.164 1607.02,956.312 1609.08,954.461 
  1611.14,952.609 1613.2,950.758 1615.26,948.906 1617.32,947.055 1619.38,945.204 1621.44,943.352 1623.5,941.501 1625.56,939.649 1627.62,937.798 1629.68,935.946 
  1631.74,934.095 1633.8,932.243 1635.86,930.392 1637.92,928.54 1639.98,926.689 1642.04,924.837 1644.1,922.986 1646.16,921.135 1648.22,919.283 1650.28,917.432 
  1652.34,915.58 1654.4,913.729 1656.46,911.877 1658.52,910.026 1660.58,908.174 1662.64,906.323 1664.71,904.471 1666.77,902.62 1668.83,900.768 1670.89,898.917 
  1672.95,897.066 1675.01,895.214 1677.07,893.363 1679.13,891.511 1681.19,889.66 1683.25,887.808 1685.31,885.957 1687.37,884.105 1689.43,882.254 1691.49,880.402 
  1693.55,878.551 1695.61,876.699 1697.67,874.848 1699.73,872.997 1701.79,871.145 1703.85,869.294 1705.91,867.442 1707.97,865.591 1710.03,863.739 1712.09,861.888 
  1714.15,860.036 1716.21,858.185 1718.27,856.333 1720.33,854.482 1722.39,852.63 1724.45,850.779 1726.51,848.928 1728.57,847.076 1730.63,845.225 1732.69,843.373 
  1734.75,841.522 1736.81,839.67 1738.87,837.819 1740.93,835.967 1742.99,834.116 1745.05,832.264 1747.11,830.413 1749.17,828.561 1751.23,826.71 1753.29,824.858 
  1755.35,823.007 1757.41,821.156 1759.47,819.304 1761.53,817.453 1763.59,815.601 1765.65,813.75 1767.71,811.898 1769.77,810.047 1771.83,808.195 1773.89,806.344 
  1775.95,804.492 1778.01,802.641 1780.07,800.789 1782.13,798.938 1784.19,797.087 1786.25,795.235 1788.31,793.384 1790.37,791.532 1792.43,789.681 1794.49,787.829 
  1796.55,785.978 1798.61,784.126 1800.67,782.275 1802.73,780.423 1804.79,778.572 1806.85,776.72 1808.91,774.869 1810.97,773.018 1813.03,771.166 1815.09,769.315 
  1817.15,767.463 1819.21,765.612 1821.27,763.76 1823.33,761.909 1825.39,760.057 1827.45,758.206 1829.51,756.354 1831.57,754.503 1833.63,752.651 1835.69,750.8 
  1837.75,748.949 1839.81,747.097 1841.87,745.246 1843.93,743.394 1845.99,741.543 1848.05,739.691 1850.11,737.84 1852.17,735.988 1854.23,734.137 1856.29,732.285 
  1858.35,730.434 1860.41,728.582 1862.47,726.731 1864.53,724.879 1866.59,723.028 1868.65,721.177 1870.71,719.325 1872.77,717.474 1874.83,715.622 1876.89,713.771 
  1878.95,711.919 1881.01,710.068 1883.07,708.216 1885.13,706.365 1887.19,704.513 1889.25,702.662 1891.31,700.81 1893.37,698.959 1895.43,697.108 1897.49,695.256 
  1899.55,693.405 1901.61,691.553 1903.67,689.702 1905.73,687.85 1907.79,685.999 1909.85,684.147 1911.91,682.296 1913.97,680.444 1916.03,678.593 1918.09,676.741 
  1920.15,674.89 1922.21,673.039 1924.27,671.187 1926.33,669.336 1928.39,667.484 1930.45,665.633 1932.51,663.781 1934.57,661.93 1936.63,660.078 1938.69,658.227 
  1940.75,656.375 1942.81,654.524 1944.87,652.672 1946.93,650.821 1948.99,648.97 1951.05,647.118 1953.11,645.267 1955.17,643.415 1957.23,641.564 1959.29,639.712 
  1961.35,637.861 1963.41,636.009 1965.47,634.158 1967.53,632.306 1969.59,630.455 1971.65,628.603 1973.71,626.752 1975.77,624.9 1977.83,623.049 1979.89,621.198 
  1981.95,619.346 1984.01,617.495 1986.07,615.643 1988.13,613.792 1990.19,611.94 1992.25,610.089 1994.31,608.237 1996.37,606.386 1998.43,604.534 2000.49,602.683 
  2002.55,600.831 2004.61,598.98 2006.67,597.129 2008.73,595.277 2010.79,593.426 2012.85,591.574 2014.91,589.723 2016.97,587.871 2019.03,586.02 2021.09,584.168 
  2023.15,582.317 2025.21,580.465 2027.27,578.614 2029.33,576.762 2031.39,574.911 2033.45,573.06 2035.51,571.208 2037.57,569.357 2039.63,567.505 2041.69,565.654 
  2043.75,563.802 2045.81,561.951 2047.87,560.099 2049.93,558.248 2051.99,556.396 2054.05,554.545 2056.11,552.693 2058.17,550.842 2060.23,548.991 2062.29,547.139 
  2064.35,545.288 2066.41,543.436 2068.47,541.585 2070.53,539.733 2072.59,537.882 2074.65,536.03 2076.71,534.179 2078.77,532.327 2080.83,530.476 2082.89,528.624 
  2084.95,526.773 2087.01,524.922 2089.07,523.07 2091.13,521.219 2093.19,519.367 2095.25,517.516 2097.31,515.664 2099.37,513.813 2101.43,511.961 2103.49,510.11 
  2105.55,508.258 2107.61,506.407 2109.67,504.555 2111.73,502.704 2113.79,500.852 2115.85,499.001 2117.91,497.15 2119.97,495.298 2122.03,493.447 2124.09,491.595 
  2126.15,489.744 2128.21,487.892 2130.27,486.041 2132.33,484.189 2134.39,482.338 2136.45,480.486 2138.51,478.635 2140.57,476.783 2142.63,474.932 2144.69,473.081 
  2146.75,471.229 2148.81,469.378 2150.87,467.526 2152.93,465.675 2154.99,463.823 2157.05,461.972 2159.11,460.12 2161.17,458.269 2163.23,456.417 2165.29,454.566 
  2167.35,452.714 2169.41,450.863 2171.47,449.012 2173.53,447.16 2175.59,445.309 2177.65,443.457 2179.71,441.606 2181.77,439.754 2183.83,437.903 2185.89,436.051 
  2187.95,434.2 2190.01,432.348 2192.07,430.497 2194.13,428.645 2196.19,426.794 2198.25,424.943 2200.31,423.091 2202.37,421.24 2204.43,419.388 2206.49,417.537 
  2208.55,415.685 2210.61,413.834 2212.67,411.982 2214.73,410.131 2216.79,408.279 2218.85,406.428 2220.91,404.576 2222.97,402.725 2225.03,400.873 2227.09,399.022 
  2229.15,397.171 2231.21,395.319 2233.27,393.468 2235.33,391.616 2237.39,389.765 2239.45,387.913 2241.51,386.062 2243.57,384.21 2245.63,382.359 2247.69,380.507 
  2249.75,378.656 2251.81,376.804 2253.87,374.953 2255.93,373.102 2257.99,371.25 2260.05,369.399 2262.11,367.547 2264.17,365.696 2266.23,363.844 2268.29,361.993 
  2270.35,360.141 2272.41,358.29 2274.47,356.438 2276.53,354.587 2278.59,352.735 2280.65,350.884 2282.71,349.033 2284.77,347.181 2286.83,345.33 2288.89,343.478 
  2290.95,341.627 
  "/>
<polyline clip-path="url(#clip312)" style="stroke:#c271d2; stroke-linecap:butt; stroke-linejoin:round; stroke-width:4; stroke-opacity:1; fill:none" points="
  230.922,934.642 232.982,931.224 235.042,927.821 237.102,924.432 239.162,921.059 241.222,917.701 243.282,914.359 245.343,911.032 247.403,907.723 249.463,904.43 
  251.523,901.154 253.583,897.895 255.643,894.655 257.703,891.432 259.763,888.228 261.823,885.042 263.883,881.876 265.943,878.729 268.003,875.601 270.063,872.494 
  272.123,869.407 274.183,866.34 276.243,863.295 278.303,860.27 280.363,857.267 282.423,854.286 284.483,851.327 286.543,848.391 288.603,845.477 290.663,842.586 
  292.723,839.718 294.783,836.874 296.843,834.054 298.903,831.258 300.963,828.486 303.023,825.739 305.083,823.017 307.144,820.321 309.204,817.649 311.264,815.004 
  313.324,812.385 315.384,809.791 317.444,807.225 319.504,804.685 321.564,802.173 323.624,799.687 325.684,797.23 327.744,794.8 329.804,792.398 331.864,790.024 
  333.924,787.679 335.984,785.363 338.044,783.076 340.104,780.818 342.164,778.589 344.224,776.39 346.284,774.221 348.344,772.083 350.404,769.974 352.464,767.896 
  354.524,765.849 356.584,763.833 358.644,761.848 360.704,759.894 362.764,757.972 364.824,756.081 366.884,754.223 368.944,752.396 371.005,750.602 373.065,748.841 
  375.125,747.112 377.185,745.416 379.245,743.753 381.305,742.123 383.365,740.526 385.425,738.963 387.485,737.433 389.545,735.938 391.605,734.476 393.665,733.048 
  395.725,731.655 397.785,730.296 399.845,728.971 401.905,727.682 403.965,726.427 406.025,725.206 408.085,724.021 410.145,722.871 412.205,721.756 414.265,720.677 
  416.325,719.633 418.385,718.625 420.445,717.652 422.505,716.715 424.565,715.814 426.625,714.949 428.685,714.12 430.745,713.327 432.805,712.57 434.866,711.85 
  436.926,711.166 438.986,710.518 441.046,709.907 443.106,709.333 445.166,708.795 447.226,708.293 449.286,707.829 451.346,707.401 453.406,707.01 455.466,706.656 
  457.526,706.339 459.586,706.058 461.646,705.815 463.706,705.608 465.766,705.439 467.826,705.306 469.886,705.211 471.946,705.152 474.006,705.131 476.066,705.146 
  478.126,705.199 480.186,705.288 482.246,705.415 484.306,705.579 486.366,705.779 488.426,706.017 490.486,706.291 492.546,706.603 494.606,706.951 496.667,707.336 
  498.727,707.758 500.787,708.217 502.847,708.712 504.907,709.245 506.967,709.813 509.027,710.419 511.087,711.06 513.147,711.739 515.207,712.453 517.267,713.204 
  519.327,713.991 521.387,714.815 523.447,715.674 525.507,716.569 527.567,717.5 529.627,718.467 531.687,719.47 533.747,720.508 535.807,721.582 537.867,722.691 
  539.927,723.836 541.987,725.015 544.047,726.23 546.107,727.479 548.167,728.764 550.227,730.083 552.287,731.436 554.347,732.824 556.407,734.246 558.467,735.703 
  560.528,737.193 562.588,738.717 564.648,740.275 566.708,741.866 568.768,743.491 570.828,745.149 572.888,746.839 574.948,748.563 577.008,750.32 579.068,752.108 
  581.128,753.93 583.188,755.783 585.248,757.668 587.308,759.586 589.368,761.534 591.428,763.514 593.488,765.526 595.548,767.568 597.608,769.641 599.668,771.745 
  601.728,773.879 603.788,776.043 605.848,778.237 607.908,780.461 609.968,782.714 612.028,784.997 614.088,787.308 616.148,789.649 618.208,792.018 620.268,794.415 
  622.328,796.841 624.389,799.294 626.449,801.775 628.509,804.283 630.569,806.819 632.629,809.381 634.689,811.97 636.749,814.585 638.809,817.226 640.869,819.893 
  642.929,822.586 644.989,825.304 647.049,828.047 649.109,830.815 651.169,833.607 653.229,836.423 655.289,839.264 657.349,842.127 659.409,845.015 661.469,847.925 
  663.529,850.858 665.589,853.813 667.649,856.791 669.709,859.79 671.769,862.811 673.829,865.854 675.889,868.917 677.949,872.001 680.009,875.105 682.069,878.229 
  684.129,881.373 686.19,884.537 688.25,887.719 690.31,890.921 692.37,894.14 694.43,897.378 696.49,900.634 698.55,903.907 700.61,907.197 702.67,910.504 
  704.73,913.828 706.79,917.168 708.85,920.523 710.91,923.894 712.97,927.28 715.03,930.681 717.09,934.097 719.15,937.527 721.21,940.97 723.27,944.427 
  725.33,947.897 727.39,951.38 729.45,954.875 731.51,958.382 733.57,961.901 735.63,965.431 737.69,968.972 739.75,972.524 741.81,976.086 743.87,979.658 
  745.93,983.24 747.99,986.831 750.051,990.431 752.111,994.039 754.171,997.655 756.231,1001.28 758.291,1004.91 760.351,1008.55 762.411,1012.19 764.471,1015.85 
  766.531,1019.5 768.591,1023.17 770.651,1026.84 772.711,1030.51 774.771,1034.19 776.831,1037.87 778.891,1041.55 780.951,1045.24 783.011,1048.94 785.071,1052.63 
  787.131,1056.33 789.191,1060.03 791.251,1063.73 793.311,1067.43 795.371,1071.13 797.431,1074.83 799.491,1078.54 801.551,1082.24 803.611,1085.94 805.671,1089.64 
  807.731,1093.34 809.791,1097.04 811.851,1100.73 813.912,1104.43 815.972,1108.12 818.032,1111.8 820.092,1115.49 822.152,1119.17 824.212,1122.84 826.272,1126.51 
  828.332,1130.18 830.392,1133.84 832.452,1137.49 834.512,1141.14 836.572,1144.78 838.632,1148.41 840.692,1152.04 842.752,1155.66 844.812,1159.27 846.872,1162.87 
  848.932,1166.46 850.992,1170.05 853.052,1173.62 855.112,1177.19 857.172,1180.74 859.232,1184.29 861.292,1187.82 863.352,1191.34 865.412,1194.86 867.472,1198.35 
  869.532,1201.84 871.592,1205.32 873.652,1208.78 875.713,1212.22 877.773,1215.66 879.833,1219.08 881.893,1222.48 883.953,1225.88 886.013,1229.25 888.073,1232.61 
  890.133,1235.96 892.193,1239.29 894.253,1242.6 896.313,1245.89 898.373,1249.17 900.433,1252.43 902.493,1255.68 904.553,1258.9 906.613,1262.11 908.673,1265.3 
  910.733,1268.47 912.793,1271.62 914.853,1274.75 916.913,1277.86 918.973,1280.95 921.033,1284.02 923.093,1287.07 925.153,1290.1 927.213,1293.1 929.273,1296.09 
  931.333,1299.05 933.393,1301.99 935.453,1304.91 937.513,1307.8 939.574,1310.67 941.634,1313.52 943.694,1316.34 945.754,1319.14 947.814,1321.92 949.874,1324.67 
  951.934,1327.4 953.994,1330.1 956.054,1332.77 958.114,1335.42 960.174,1338.05 962.234,1340.64 964.294,1343.21 966.354,1345.76 968.414,1348.28 970.474,1350.76 
  972.534,1353.23 974.594,1355.66 976.654,1358.07 978.714,1360.45 980.774,1362.8 982.834,1365.12 984.894,1367.41 986.954,1369.67 989.014,1371.9 991.074,1374.11 
  993.134,1376.28 995.194,1378.43 997.254,1380.54 999.314,1382.62 1001.37,1384.67 1003.43,1386.69 1005.49,1388.68 1007.55,1390.64 1009.61,1392.57 1011.67,1394.47 
  1013.73,1396.33 1015.79,1398.16 1017.85,1399.96 1019.91,1401.73 1021.97,1403.46 1024.03,1405.16 1026.09,1406.83 1028.15,1408.47 1030.21,1410.07 1032.27,1411.64 
  1034.34,1413.17 1036.4,1414.67 1038.46,1416.14 1040.52,1417.57 1042.58,1418.97 1044.64,1420.34 1046.7,1421.67 1048.76,1422.96 1050.82,1424.22 1052.88,1425.45 
  1054.94,1426.64 1057,1427.79 1059.06,1428.91 1061.12,1430 1063.18,1431.05 1065.24,1432.06 1067.3,1433.04 1069.36,1433.98 1071.42,1434.89 1073.48,1435.76 
  1075.54,1436.6 1077.6,1437.4 1079.66,1438.16 1081.72,1438.88 1083.78,1439.57 1085.84,1440.23 1087.9,1440.84 1089.96,1441.42 1092.02,1441.97 1094.08,1442.48 
  1096.14,1442.95 1098.2,1443.38 1100.26,1443.78 1102.32,1444.14 1104.38,1444.46 1106.44,1444.75 1108.5,1445 1110.56,1445.21 1112.62,1445.38 1114.68,1445.52 
  1116.74,1445.62 1118.8,1445.69 1120.86,1445.71 1122.92,1445.7 1124.98,1445.66 1127.04,1445.57 1129.1,1445.45 1131.16,1445.3 1133.22,1445.1 1135.28,1444.87 
  1137.34,1444.6 1139.4,1444.3 1141.46,1443.95 1143.52,1443.57 1145.58,1443.16 1147.64,1442.7 1149.7,1442.22 1151.76,1441.69 1153.82,1441.13 1155.88,1440.53 
  1157.94,1439.89 1160,1439.22 1162.06,1438.51 1164.12,1437.76 1166.18,1436.98 1168.24,1436.17 1170.3,1435.31 1172.36,1434.42 1174.42,1433.5 1176.48,1432.54 
  1178.54,1431.54 1180.6,1430.51 1182.66,1429.44 1184.72,1428.33 1186.78,1427.2 1188.84,1426.02 1190.9,1424.81 1192.96,1423.57 1195.02,1422.29 1197.08,1420.98 
  1199.14,1419.63 1201.2,1418.25 1203.26,1416.83 1205.32,1415.38 1207.38,1413.89 1209.44,1412.37 1211.5,1410.82 1213.56,1409.24 1215.62,1407.62 1217.68,1405.96 
  1219.74,1404.28 1221.8,1402.56 1223.86,1400.81 1225.92,1399.02 1227.98,1397.21 1230.04,1395.36 1232.1,1393.48 1234.16,1391.57 1236.22,1389.62 1238.28,1387.65 
  1240.34,1385.64 1242.4,1383.61 1244.46,1381.54 1246.52,1379.44 1248.58,1377.31 1250.64,1375.15 1252.7,1372.96 1254.76,1370.74 1256.82,1368.49 1258.88,1366.21 
  1260.94,1363.91 1263,1361.57 1265.06,1359.21 1267.12,1356.81 1269.18,1354.39 1271.24,1351.94 1273.3,1349.47 1275.36,1346.96 1277.42,1344.43 1279.48,1341.88 
  1281.54,1339.29 1283.6,1336.68 1285.66,1334.04 1287.72,1331.38 1289.78,1328.69 1291.84,1325.98 1293.9,1323.24 1295.96,1320.47 1298.02,1317.69 1300.08,1314.87 
  1302.14,1312.04 1304.2,1309.18 1306.26,1306.29 1308.32,1303.39 1310.38,1300.46 1312.44,1297.51 1314.5,1294.53 1316.56,1291.53 1318.62,1288.52 1320.68,1285.48 
  1322.74,1282.42 1324.8,1279.34 1326.86,1276.24 1328.92,1273.12 1330.98,1269.97 1333.04,1266.81 1335.1,1263.64 1337.16,1260.44 1339.22,1257.22 1341.28,1253.99 
  1343.34,1250.73 1345.4,1247.46 1347.46,1244.17 1349.52,1240.87 1351.58,1237.55 1353.64,1234.21 1355.7,1230.86 1357.76,1227.49 1359.82,1224.11 1361.88,1220.71 
  1363.94,1217.29 1366,1213.87 1368.06,1210.43 1370.12,1206.97 1372.18,1203.5 1374.24,1200.02 1376.3,1196.53 1378.36,1193.02 1380.42,1189.51 1382.48,1185.98 
  1384.54,1182.44 1386.6,1178.89 1388.66,1175.33 1390.72,1171.76 1392.78,1168.18 1394.84,1164.59 1396.9,1160.99 1398.96,1157.38 1401.02,1153.77 1403.08,1150.14 
  1405.14,1146.51 1407.2,1142.88 1409.26,1139.23 1411.32,1135.58 1413.38,1131.92 1415.44,1128.26 1417.5,1124.59 1419.56,1120.92 1421.62,1117.25 1423.68,1113.56 
  1425.74,1109.88 1427.8,1106.19 1429.86,1102.5 1431.92,1098.8 1433.98,1095.11 1436.04,1091.41 1438.1,1087.71 1440.16,1084.01 1442.22,1080.31 1444.28,1076.6 
  1446.34,1072.9 1448.4,1069.2 1450.46,1065.5 1452.52,1061.79 1454.58,1058.09 1456.64,1054.4 1458.7,1050.7 1460.76,1047.01 1462.82,1043.32 1464.88,1039.63 
  1466.94,1035.95 1469,1032.27 1471.06,1028.59 1473.12,1024.92 1475.18,1021.25 1477.24,1017.59 1479.3,1013.94 1481.36,1010.29 1483.42,1006.65 1485.48,1003.01 
  1487.54,999.386 1489.6,995.766 1491.66,992.154 1493.72,988.55 1495.78,984.955 1497.84,981.368 1499.9,977.792 1501.96,974.225 1504.02,970.668 1506.08,967.122 
  1508.14,963.586 1510.2,960.062 1512.26,956.549 1514.32,953.048 1516.38,949.559 1518.44,946.083 1520.5,942.62 1522.56,939.17 1524.62,935.734 1526.68,932.312 
  1528.74,928.904 1530.8,925.51 1532.86,922.132 1534.92,918.769 1536.98,915.422 1539.04,912.09 1541.1,908.775 1543.16,905.477 1545.22,902.195 1547.28,898.931 
  1549.34,895.685 1551.4,892.457 1553.46,889.247 1555.52,886.055 1557.58,882.882 1559.64,879.729 1561.7,876.595 1563.76,873.482 1565.82,870.388 1567.88,867.315 
  1569.94,864.262 1572,861.231 1574.06,858.221 1576.12,855.233 1578.18,852.267 1580.24,849.323 1582.3,846.402 1584.36,843.504 1586.42,840.629 1588.48,837.777 
  1590.54,834.95 1592.6,832.146 1594.66,829.366 1596.72,826.612 1598.78,823.882 1600.84,821.177 1602.9,818.497 1604.96,815.844 1607.02,813.216 1609.08,810.615 
  1611.14,808.04 1613.2,805.491 1615.26,802.97 1617.32,800.476 1619.38,798.009 1621.44,795.571 1623.5,793.16 1625.56,790.777 1627.62,788.423 1629.68,786.098 
  1631.74,783.801 1633.8,781.534 1635.86,779.296 1637.92,777.088 1639.98,774.909 1642.04,772.761 1644.1,770.642 1646.16,768.555 1648.22,766.498 1650.28,764.472 
  1652.34,762.477 1654.4,760.513 1656.46,758.581 1658.52,756.68 1660.58,754.811 1662.64,752.975 1664.71,751.17 1666.77,749.398 1668.83,747.659 1670.89,745.952 
  1672.95,744.279 1675.01,742.638 1677.07,741.031 1679.13,739.457 1681.19,737.917 1683.25,736.41 1685.31,734.938 1687.37,733.499 1689.43,732.095 1691.49,730.725 
  1693.55,729.39 1695.61,728.089 1697.67,726.823 1699.73,725.591 1701.79,724.395 1703.85,723.234 1705.91,722.108 1707.97,721.017 1710.03,719.962 1712.09,718.942 
  1714.15,717.958 1716.21,717.01 1718.27,716.097 1720.33,715.221 1722.39,714.38 1724.45,713.576 1726.51,712.808 1728.57,712.076 1730.63,711.38 1732.69,710.721 
  1734.75,710.098 1736.81,709.512 1738.87,708.962 1740.93,708.449 1742.99,707.973 1745.05,707.533 1747.11,707.131 1749.17,706.765 1751.23,706.436 1753.29,706.143 
  1755.35,705.888 1757.41,705.67 1759.47,705.489 1761.53,705.344 1763.59,705.237 1765.65,705.167 1767.71,705.133 1769.77,705.137 1771.83,705.178 1773.89,705.256 
  1775.95,705.371 1778.01,705.523 1780.07,705.711 1782.13,705.937 1784.19,706.2 1786.25,706.5 1788.31,706.836 1790.37,707.21 1792.43,707.62 1794.49,708.067 
  1796.55,708.551 1798.61,709.071 1800.67,709.628 1802.73,710.222 1804.79,710.852 1806.85,711.519 1808.91,712.222 1810.97,712.961 1813.03,713.737 1815.09,714.548 
  1817.15,715.396 1819.21,716.28 1821.27,717.2 1823.33,718.155 1825.39,719.147 1827.45,720.174 1829.51,721.236 1831.57,722.334 1833.63,723.467 1835.69,724.636 
  1837.75,725.839 1839.81,727.078 1841.87,728.351 1843.93,729.659 1845.99,731.001 1848.05,732.378 1850.11,733.79 1852.17,735.235 1854.23,736.715 1856.29,738.228 
  1858.35,739.775 1860.41,741.356 1862.47,742.97 1864.53,744.617 1866.59,746.297 1868.65,748.011 1870.71,749.757 1872.77,751.535 1874.83,753.346 1876.89,755.189 
  1878.95,757.064 1881.01,758.971 1883.07,760.91 1885.13,762.88 1887.19,764.882 1889.25,766.914 1891.31,768.977 1893.37,771.071 1895.43,773.196 1897.49,775.35 
  1899.55,777.535 1901.61,779.749 1903.67,781.993 1905.73,784.267 1907.79,786.569 1909.85,788.9 1911.91,791.26 1913.97,793.649 1916.03,796.065 1918.09,798.51 
  1920.15,800.982 1922.21,803.481 1924.27,806.008 1926.33,808.562 1928.39,811.142 1930.45,813.749 1932.51,816.382 1934.57,819.041 1936.63,821.726 1938.69,824.436 
  1940.75,827.171 1942.81,829.931 1944.87,832.715 1946.93,835.524 1948.99,838.356 1951.05,841.213 1953.11,844.092 1955.17,846.995 1957.23,849.921 1959.29,852.87 
  1961.35,855.84 1963.41,858.833 1965.47,861.847 1967.53,864.882 1969.59,867.939 1971.65,871.016 1973.71,874.114 1975.77,877.232 1977.83,880.37 1979.89,883.527 
  1981.95,886.704 1984.01,889.899 1986.07,893.113 1988.13,896.345 1990.19,899.595 1992.25,902.862 1994.31,906.147 1996.37,909.449 1998.43,912.767 2000.49,916.102 
  2002.55,919.453 2004.61,922.819 2006.67,926.2 2008.73,929.596 2010.79,933.007 2012.85,936.433 2014.91,939.872 2016.97,943.324 2019.03,946.79 2021.09,950.269 
  2023.15,953.76 2025.21,957.263 2027.27,960.779 2029.33,964.305 2031.39,967.843 2033.45,971.392 2035.51,974.95 2037.57,978.519 2039.63,982.098 2041.69,985.686 
  2043.75,989.283 2045.81,992.889 2047.87,996.502 2049.93,1000.12 2051.99,1003.75 2054.05,1007.39 2056.11,1011.03 2058.17,1014.68 2060.23,1018.34 2062.29,1022 
  2064.35,1025.67 2066.41,1029.34 2068.47,1033.01 2070.53,1036.7 2072.59,1040.38 2074.65,1044.07 2076.71,1047.76 2078.77,1051.45 2080.83,1055.15 2082.89,1058.85 
  2084.95,1062.55 2087.01,1066.25 2089.07,1069.95 2091.13,1073.65 2093.19,1077.36 2095.25,1081.06 2097.31,1084.76 2099.37,1088.46 2101.43,1092.16 2103.49,1095.86 
  2105.55,1099.56 2107.61,1103.25 2109.67,1106.94 2111.73,1110.63 2113.79,1114.31 2115.85,1117.99 2117.91,1121.67 2119.97,1125.34 2122.03,1129.01 2124.09,1132.67 
  2126.15,1136.33 2128.21,1139.98 2130.27,1143.62 2132.33,1147.25 2134.39,1150.88 2136.45,1154.5 2138.51,1158.12 2140.57,1161.72 2142.63,1165.32 2144.69,1168.91 
  2146.75,1172.49 2148.81,1176.05 2150.87,1179.61 2152.93,1183.16 2154.99,1186.7 2157.05,1190.22 2159.11,1193.74 2161.17,1197.24 2163.23,1200.73 2165.29,1204.21 
  2167.35,1207.68 2169.41,1211.13 2171.47,1214.57 2173.53,1217.99 2175.59,1221.4 2177.65,1224.8 2179.71,1228.18 2181.77,1231.54 2183.83,1234.89 2185.89,1238.23 
  2187.95,1241.54 2190.01,1244.85 2192.07,1248.13 2194.13,1251.4 2196.19,1254.65 2198.25,1257.88 2200.31,1261.09 2202.37,1264.28 2204.43,1267.46 2206.49,1270.62 
  2208.55,1273.75 2210.61,1276.87 2212.67,1279.97 2214.73,1283.04 2216.79,1286.1 2218.85,1289.13 2220.91,1292.15 2222.97,1295.14 2225.03,1298.11 2227.09,1301.06 
  2229.15,1303.98 2231.21,1306.88 2233.27,1309.76 2235.33,1312.62 2237.39,1315.45 2239.45,1318.26 2241.51,1321.04 2243.57,1323.8 2245.63,1326.53 2247.69,1329.24 
  2249.75,1331.92 2251.81,1334.58 2253.87,1337.21 2255.93,1339.82 2257.99,1342.4 2260.05,1344.95 2262.11,1347.48 2264.17,1349.97 2266.23,1352.45 2268.29,1354.89 
  2270.35,1357.3 2272.41,1359.69 2274.47,1362.05 2276.53,1364.38 2278.59,1366.68 2280.65,1368.95 2282.71,1371.2 2284.77,1373.41 2286.83,1375.59 2288.89,1377.75 
  2290.95,1379.87 
  "/>
<path clip-path="url(#clip310)" d="
M1983.2 354.418 L2279.97 354.418 L2279.97 95.2176 L1983.2 95.2176  Z
  " fill="#eaeaea" fill-rule="evenodd" fill-opacity="1"/>
<polyline clip-path="url(#clip310)" style="stroke:#ffffff; stroke-linecap:butt; stroke-linejoin:round; stroke-width:4; stroke-opacity:1; fill:none" points="
  1983.2,354.418 2279.97,354.418 2279.97,95.2176 1983.2,95.2176 1983.2,354.418 
  "/>
<polyline clip-path="url(#clip310)" style="stroke:#009af9; stroke-linecap:butt; stroke-linejoin:round; stroke-width:4; stroke-opacity:1; fill:none" points="
  2007.46,147.058 2153.04,147.058 
  "/>
<path clip-path="url(#clip310)" d="M2191.14 166.745 Q2189.34 171.375 2187.62 172.787 Q2185.91 174.199 2183.04 174.199 L2179.64 174.199 L2179.64 170.634 L2182.14 170.634 Q2183.9 170.634 2184.87 169.8 Q2185.84 168.967 2187.02 165.865 L2187.79 163.921 L2177.3 138.412 L2181.81 138.412 L2189.92 158.689 L2198.02 138.412 L2202.53 138.412 L2191.14 166.745 Z" fill="#000000" fill-rule="evenodd" fill-opacity="1" /><path clip-path="url(#clip310)" d="M2209.82 160.402 L2217.46 160.402 L2217.46 134.037 L2209.15 135.703 L2209.15 131.444 L2217.42 129.778 L2222.09 129.778 L2222.09 160.402 L2229.73 160.402 L2229.73 164.338 L2209.82 164.338 L2209.82 160.402 Z" fill="#000000" fill-rule="evenodd" fill-opacity="1" /><polyline clip-path="url(#clip310)" style="stroke:#e26f46; stroke-linecap:butt; stroke-linejoin:round; stroke-width:4; stroke-opacity:1; fill:none" points="
  2007.46,198.898 2153.04,198.898 
  "/>
<path clip-path="url(#clip310)" d="M2191.14 218.585 Q2189.34 223.215 2187.62 224.627 Q2185.91 226.039 2183.04 226.039 L2179.64 226.039 L2179.64 222.474 L2182.14 222.474 Q2183.9 222.474 2184.87 221.64 Q2185.84 220.807 2187.02 217.705 L2187.79 215.761 L2177.3 190.252 L2181.81 190.252 L2189.92 210.529 L2198.02 190.252 L2202.53 190.252 L2191.14 218.585 Z" fill="#000000" fill-rule="evenodd" fill-opacity="1" /><path clip-path="url(#clip310)" d="M2213.04 212.242 L2229.36 212.242 L2229.36 216.178 L2207.42 216.178 L2207.42 212.242 Q2210.08 209.488 2214.66 204.858 Q2219.27 200.205 2220.45 198.863 Q2222.69 196.34 2223.57 194.604 Q2224.48 192.844 2224.48 191.155 Q2224.48 188.4 2222.53 186.664 Q2220.61 184.928 2217.51 184.928 Q2215.31 184.928 2212.86 185.692 Q2210.42 186.455 2207.65 188.006 L2207.65 183.284 Q2210.47 182.15 2212.92 181.571 Q2215.38 180.993 2217.42 180.993 Q2222.79 180.993 2225.98 183.678 Q2229.17 186.363 2229.17 190.854 Q2229.17 192.983 2228.36 194.905 Q2227.58 196.803 2225.47 199.395 Q2224.89 200.067 2221.79 203.284 Q2218.69 206.479 2213.04 212.242 Z" fill="#000000" fill-rule="evenodd" fill-opacity="1" /><polyline clip-path="url(#clip310)" style="stroke:#3da44d; stroke-linecap:butt; stroke-linejoin:round; stroke-width:4; stroke-opacity:1; fill:none" points="
  2007.46,250.738 2153.04,250.738 
  "/>
<path clip-path="url(#clip310)" d="M2191.14 270.425 Q2189.34 275.055 2187.62 276.467 Q2185.91 277.879 2183.04 277.879 L2179.64 277.879 L2179.64 274.314 L2182.14 274.314 Q2183.9 274.314 2184.87 273.48 Q2185.84 272.647 2187.02 269.545 L2187.79 267.601 L2177.3 242.092 L2181.81 242.092 L2189.92 262.369 L2198.02 242.092 L2202.53 242.092 L2191.14 270.425 Z" fill="#000000" fill-rule="evenodd" fill-opacity="1" /><path clip-path="url(#clip310)" d="M2223.18 249.383 Q2226.54 250.101 2228.41 252.369 Q2230.31 254.638 2230.31 257.971 Q2230.31 263.087 2226.79 265.888 Q2223.27 268.689 2216.79 268.689 Q2214.61 268.689 2212.3 268.249 Q2210.01 267.832 2207.55 266.976 L2207.55 262.462 Q2209.5 263.596 2211.81 264.175 Q2214.13 264.754 2216.65 264.754 Q2221.05 264.754 2223.34 263.018 Q2225.66 261.281 2225.66 257.971 Q2225.66 254.916 2223.5 253.203 Q2221.37 251.467 2217.55 251.467 L2213.53 251.467 L2213.53 247.624 L2217.74 247.624 Q2221.19 247.624 2223.02 246.258 Q2224.85 244.87 2224.85 242.277 Q2224.85 239.615 2222.95 238.203 Q2221.07 236.768 2217.55 236.768 Q2215.63 236.768 2213.43 237.184 Q2211.23 237.601 2208.6 238.481 L2208.6 234.314 Q2211.26 233.573 2213.57 233.203 Q2215.91 232.833 2217.97 232.833 Q2223.29 232.833 2226.4 235.263 Q2229.5 237.67 2229.5 241.791 Q2229.5 244.661 2227.85 246.652 Q2226.21 248.62 2223.18 249.383 Z" fill="#000000" fill-rule="evenodd" fill-opacity="1" /><polyline clip-path="url(#clip310)" style="stroke:#c271d2; stroke-linecap:butt; stroke-linejoin:round; stroke-width:4; stroke-opacity:1; fill:none" points="
  2007.46,302.578 2153.04,302.578 
  "/>
<path clip-path="url(#clip310)" d="M2191.14 322.265 Q2189.34 326.895 2187.62 328.307 Q2185.91 329.719 2183.04 329.719 L2179.64 329.719 L2179.64 326.154 L2182.14 326.154 Q2183.9 326.154 2184.87 325.32 Q2185.84 324.487 2187.02 321.385 L2187.79 319.441 L2177.3 293.932 L2181.81 293.932 L2189.92 314.209 L2198.02 293.932 L2202.53 293.932 L2191.14 322.265 Z" fill="#000000" fill-rule="evenodd" fill-opacity="1" /><path clip-path="url(#clip310)" d="M2221.86 289.372 L2210.05 307.821 L2221.86 307.821 L2221.86 289.372 M2220.63 285.298 L2226.51 285.298 L2226.51 307.821 L2231.44 307.821 L2231.44 311.709 L2226.51 311.709 L2226.51 319.858 L2221.86 319.858 L2221.86 311.709 L2206.26 311.709 L2206.26 307.196 L2220.63 285.298 Z" fill="#000000" fill-rule="evenodd" fill-opacity="1" /><g clip-path="url(#clip310)">
<text style="fill:#808080; fill-opacity:1; font-family:Courier,Courier New,Lucida Sans Typewriter,Lucida Typewriter,monospace; font-size:111px; text-anchor:middle;" transform="rotate(0, 1108.5, 1083.24)" x="1108.5" y="1083.24">nice</text>
</g>
</svg>
