<?xml version="1.0" encoding="utf-8"?>
<svg xmlns="http://www.w3.org/2000/svg" xmlns:xlink="http://www.w3.org/1999/xlink" width="600" height="400" viewBox="0 0 2400 1600">
<defs>
  <clipPath id="clip580">
    <rect x="0" y="0" width="2400" height="1600"/>
  </clipPath>
</defs>
<path clip-path="url(#clip580)" d="
M0 1600 L2400 1600 L2400 0 L0 0  Z
  " fill="#ffffff" fill-rule="evenodd" fill-opacity="1"/>
<defs>
  <clipPath id="clip581">
    <rect x="480" y="0" width="1681" height="1600"/>
  </clipPath>
</defs>
<path clip-path="url(#clip580)" d="
M141.853 1486.45 L2352.76 1486.45 L2352.76 47.2441 L141.853 47.2441  Z
  " fill="#eaeaea" fill-rule="evenodd" fill-opacity="1"/>
<defs>
  <clipPath id="clip582">
    <rect x="141" y="47" width="2212" height="1440"/>
  </clipPath>
</defs>
<polyline clip-path="url(#clip582)" style="stroke:#ffffff; stroke-linecap:butt; stroke-linejoin:round; stroke-width:4; stroke-opacity:1; fill:none" points="
  204.426,1486.45 204.426,47.2441 
  "/>
<polyline clip-path="url(#clip582)" style="stroke:#ffffff; stroke-linecap:butt; stroke-linejoin:round; stroke-width:4; stroke-opacity:1; fill:none" points="
  725.865,1486.45 725.865,47.2441 
  "/>
<polyline clip-path="url(#clip582)" style="stroke:#ffffff; stroke-linecap:butt; stroke-linejoin:round; stroke-width:4; stroke-opacity:1; fill:none" points="
  1247.3,1486.45 1247.3,47.2441 
  "/>
<polyline clip-path="url(#clip582)" style="stroke:#ffffff; stroke-linecap:butt; stroke-linejoin:round; stroke-width:4; stroke-opacity:1; fill:none" points="
  1768.74,1486.45 1768.74,47.2441 
  "/>
<polyline clip-path="url(#clip582)" style="stroke:#ffffff; stroke-linecap:butt; stroke-linejoin:round; stroke-width:4; stroke-opacity:1; fill:none" points="
  2290.18,1486.45 2290.18,47.2441 
  "/>
<polyline clip-path="url(#clip582)" style="stroke:#ffffff; stroke-linecap:butt; stroke-linejoin:round; stroke-width:2; stroke-opacity:1; fill:none" points="
  465.145,1486.45 465.145,47.2441 
  "/>
<polyline clip-path="url(#clip582)" style="stroke:#ffffff; stroke-linecap:butt; stroke-linejoin:round; stroke-width:2; stroke-opacity:1; fill:none" points="
  986.585,1486.45 986.585,47.2441 
  "/>
<polyline clip-path="url(#clip582)" style="stroke:#ffffff; stroke-linecap:butt; stroke-linejoin:round; stroke-width:2; stroke-opacity:1; fill:none" points="
  1508.02,1486.45 1508.02,47.2441 
  "/>
<polyline clip-path="url(#clip582)" style="stroke:#ffffff; stroke-linecap:butt; stroke-linejoin:round; stroke-width:2; stroke-opacity:1; fill:none" points="
  2029.46,1486.45 2029.46,47.2441 
  "/>
<polyline clip-path="url(#clip580)" style="stroke:#ffffff; stroke-linecap:butt; stroke-linejoin:round; stroke-width:4; stroke-opacity:1; fill:none" points="
  141.853,1486.45 2352.76,1486.45 
  "/>
<polyline clip-path="url(#clip580)" style="stroke:#333333; stroke-linecap:butt; stroke-linejoin:round; stroke-width:4; stroke-opacity:1; fill:none" points="
  204.426,1486.45 204.426,1505.35 
  "/>
<polyline clip-path="url(#clip580)" style="stroke:#333333; stroke-linecap:butt; stroke-linejoin:round; stroke-width:4; stroke-opacity:1; fill:none" points="
  725.865,1486.45 725.865,1505.35 
  "/>
<polyline clip-path="url(#clip580)" style="stroke:#333333; stroke-linecap:butt; stroke-linejoin:round; stroke-width:4; stroke-opacity:1; fill:none" points="
  1247.3,1486.45 1247.3,1505.35 
  "/>
<polyline clip-path="url(#clip580)" style="stroke:#333333; stroke-linecap:butt; stroke-linejoin:round; stroke-width:4; stroke-opacity:1; fill:none" points="
  1768.74,1486.45 1768.74,1505.35 
  "/>
<polyline clip-path="url(#clip580)" style="stroke:#333333; stroke-linecap:butt; stroke-linejoin:round; stroke-width:4; stroke-opacity:1; fill:none" points="
  2290.18,1486.45 2290.18,1505.35 
  "/>
<polyline clip-path="url(#clip580)" style="stroke:#333333; stroke-linecap:butt; stroke-linejoin:round; stroke-width:4; stroke-opacity:1; fill:none" points="
  465.145,1486.45 465.145,1495.9 
  "/>
<polyline clip-path="url(#clip580)" style="stroke:#333333; stroke-linecap:butt; stroke-linejoin:round; stroke-width:4; stroke-opacity:1; fill:none" points="
  986.585,1486.45 986.585,1495.9 
  "/>
<polyline clip-path="url(#clip580)" style="stroke:#333333; stroke-linecap:butt; stroke-linejoin:round; stroke-width:4; stroke-opacity:1; fill:none" points="
  1508.02,1486.45 1508.02,1495.9 
  "/>
<polyline clip-path="url(#clip580)" style="stroke:#333333; stroke-linecap:butt; stroke-linejoin:round; stroke-width:4; stroke-opacity:1; fill:none" points="
  2029.46,1486.45 2029.46,1495.9 
  "/>
<path clip-path="url(#clip580)" d="M181.81 1526.97 Q178.199 1526.97 176.37 1530.53 Q174.565 1534.07 174.565 1541.2 Q174.565 1548.31 176.37 1551.87 Q178.199 1555.42 181.81 1555.42 Q185.444 1555.42 187.25 1551.87 Q189.079 1548.31 189.079 1541.2 Q189.079 1534.07 187.25 1530.53 Q185.444 1526.97 181.81 1526.97 M181.81 1523.26 Q187.62 1523.26 190.676 1527.87 Q193.754 1532.45 193.754 1541.2 Q193.754 1549.93 190.676 1554.54 Q187.62 1559.12 181.81 1559.12 Q176 1559.12 172.921 1554.54 Q169.866 1549.93 169.866 1541.2 Q169.866 1532.45 172.921 1527.87 Q176 1523.26 181.81 1523.26 Z" fill="#4c4c4c" fill-rule="evenodd" fill-opacity="1" /><path clip-path="url(#clip580)" d="M201.972 1552.57 L206.856 1552.57 L206.856 1558.45 L201.972 1558.45 L201.972 1552.57 Z" fill="#4c4c4c" fill-rule="evenodd" fill-opacity="1" /><path clip-path="url(#clip580)" d="M227.041 1526.97 Q223.43 1526.97 221.602 1530.53 Q219.796 1534.07 219.796 1541.2 Q219.796 1548.31 221.602 1551.87 Q223.43 1555.42 227.041 1555.42 Q230.676 1555.42 232.481 1551.87 Q234.31 1548.31 234.31 1541.2 Q234.31 1534.07 232.481 1530.53 Q230.676 1526.97 227.041 1526.97 M227.041 1523.26 Q232.851 1523.26 235.907 1527.87 Q238.986 1532.45 238.986 1541.2 Q238.986 1549.93 235.907 1554.54 Q232.851 1559.12 227.041 1559.12 Q221.231 1559.12 218.152 1554.54 Q215.097 1549.93 215.097 1541.2 Q215.097 1532.45 218.152 1527.87 Q221.231 1523.26 227.041 1523.26 Z" fill="#4c4c4c" fill-rule="evenodd" fill-opacity="1" /><path clip-path="url(#clip580)" d="M697.601 1554.51 L713.921 1554.51 L713.921 1558.45 L691.976 1558.45 L691.976 1554.51 Q694.638 1551.76 699.222 1547.13 Q703.828 1542.48 705.009 1541.13 Q707.254 1538.61 708.134 1536.87 Q709.036 1535.11 709.036 1533.42 Q709.036 1530.67 707.092 1528.93 Q705.171 1527.2 702.069 1527.2 Q699.87 1527.2 697.416 1527.96 Q694.986 1528.73 692.208 1530.28 L692.208 1525.55 Q695.032 1524.42 697.486 1523.84 Q699.939 1523.26 701.976 1523.26 Q707.347 1523.26 710.541 1525.95 Q713.735 1528.63 713.735 1533.12 Q713.735 1535.25 712.925 1537.17 Q712.138 1539.07 710.032 1541.67 Q709.453 1542.34 706.351 1545.55 Q703.249 1548.75 697.601 1554.51 Z" fill="#4c4c4c" fill-rule="evenodd" fill-opacity="1" /><path clip-path="url(#clip580)" d="M723.735 1552.57 L728.62 1552.57 L728.62 1558.45 L723.735 1558.45 L723.735 1552.57 Z" fill="#4c4c4c" fill-rule="evenodd" fill-opacity="1" /><path clip-path="url(#clip580)" d="M738.851 1523.89 L757.207 1523.89 L757.207 1527.82 L743.133 1527.82 L743.133 1536.3 Q744.152 1535.95 745.17 1535.79 Q746.189 1535.6 747.208 1535.6 Q752.995 1535.6 756.374 1538.77 Q759.754 1541.94 759.754 1547.36 Q759.754 1552.94 756.282 1556.04 Q752.809 1559.12 746.49 1559.12 Q744.314 1559.12 742.046 1558.75 Q739.8 1558.38 737.393 1557.64 L737.393 1552.94 Q739.476 1554.07 741.698 1554.63 Q743.921 1555.18 746.397 1555.18 Q750.402 1555.18 752.74 1553.08 Q755.078 1550.97 755.078 1547.36 Q755.078 1543.75 752.74 1541.64 Q750.402 1539.54 746.397 1539.54 Q744.522 1539.54 742.647 1539.95 Q740.796 1540.37 738.851 1541.25 L738.851 1523.89 Z" fill="#4c4c4c" fill-rule="evenodd" fill-opacity="1" /><path clip-path="url(#clip580)" d="M1214.47 1523.89 L1232.83 1523.89 L1232.83 1527.82 L1218.75 1527.82 L1218.75 1536.3 Q1219.77 1535.95 1220.79 1535.79 Q1221.81 1535.6 1222.83 1535.6 Q1228.61 1535.6 1231.99 1538.77 Q1235.37 1541.94 1235.37 1547.36 Q1235.37 1552.94 1231.9 1556.04 Q1228.43 1559.12 1222.11 1559.12 Q1219.93 1559.12 1217.66 1558.75 Q1215.42 1558.38 1213.01 1557.64 L1213.01 1552.94 Q1215.09 1554.07 1217.32 1554.63 Q1219.54 1555.18 1222.02 1555.18 Q1226.02 1555.18 1228.36 1553.08 Q1230.7 1550.97 1230.7 1547.36 Q1230.7 1543.75 1228.36 1541.64 Q1226.02 1539.54 1222.02 1539.54 Q1220.14 1539.54 1218.27 1539.95 Q1216.41 1540.37 1214.47 1541.25 L1214.47 1523.89 Z" fill="#4c4c4c" fill-rule="evenodd" fill-opacity="1" /><path clip-path="url(#clip580)" d="M1244.58 1552.57 L1249.47 1552.57 L1249.47 1558.45 L1244.58 1558.45 L1244.58 1552.57 Z" fill="#4c4c4c" fill-rule="evenodd" fill-opacity="1" /><path clip-path="url(#clip580)" d="M1269.65 1526.97 Q1266.04 1526.97 1264.21 1530.53 Q1262.41 1534.07 1262.41 1541.2 Q1262.41 1548.31 1264.21 1551.87 Q1266.04 1555.42 1269.65 1555.42 Q1273.29 1555.42 1275.09 1551.87 Q1276.92 1548.31 1276.92 1541.2 Q1276.92 1534.07 1275.09 1530.53 Q1273.29 1526.97 1269.65 1526.97 M1269.65 1523.26 Q1275.46 1523.26 1278.52 1527.87 Q1281.6 1532.45 1281.6 1541.2 Q1281.6 1549.93 1278.52 1554.54 Q1275.46 1559.12 1269.65 1559.12 Q1263.84 1559.12 1260.77 1554.54 Q1257.71 1549.93 1257.71 1541.2 Q1257.71 1532.45 1260.77 1527.87 Q1263.84 1523.26 1269.65 1523.26 Z" fill="#4c4c4c" fill-rule="evenodd" fill-opacity="1" /><path clip-path="url(#clip580)" d="M1735.06 1523.89 L1757.29 1523.89 L1757.29 1525.88 L1744.74 1558.45 L1739.86 1558.45 L1751.66 1527.82 L1735.06 1527.82 L1735.06 1523.89 Z" fill="#4c4c4c" fill-rule="evenodd" fill-opacity="1" /><path clip-path="url(#clip580)" d="M1766.41 1552.57 L1771.29 1552.57 L1771.29 1558.45 L1766.41 1558.45 L1766.41 1552.57 Z" fill="#4c4c4c" fill-rule="evenodd" fill-opacity="1" /><path clip-path="url(#clip580)" d="M1781.52 1523.89 L1799.88 1523.89 L1799.88 1527.82 L1785.8 1527.82 L1785.8 1536.3 Q1786.82 1535.95 1787.84 1535.79 Q1788.86 1535.6 1789.88 1535.6 Q1795.66 1535.6 1799.04 1538.77 Q1802.42 1541.94 1802.42 1547.36 Q1802.42 1552.94 1798.95 1556.04 Q1795.48 1559.12 1789.16 1559.12 Q1786.98 1559.12 1784.72 1558.75 Q1782.47 1558.38 1780.06 1557.64 L1780.06 1552.94 Q1782.15 1554.07 1784.37 1554.63 Q1786.59 1555.18 1789.07 1555.18 Q1793.07 1555.18 1795.41 1553.08 Q1797.75 1550.97 1797.75 1547.36 Q1797.75 1543.75 1795.41 1541.64 Q1793.07 1539.54 1789.07 1539.54 Q1787.19 1539.54 1785.32 1539.95 Q1783.47 1540.37 1781.52 1541.25 L1781.52 1523.89 Z" fill="#4c4c4c" fill-rule="evenodd" fill-opacity="1" /><path clip-path="url(#clip580)" d="M2242.26 1554.51 L2249.89 1554.51 L2249.89 1528.15 L2241.58 1529.81 L2241.58 1525.55 L2249.85 1523.89 L2254.52 1523.89 L2254.52 1554.51 L2262.16 1554.51 L2262.16 1558.45 L2242.26 1558.45 L2242.26 1554.51 Z" fill="#4c4c4c" fill-rule="evenodd" fill-opacity="1" /><path clip-path="url(#clip580)" d="M2281.61 1526.97 Q2278 1526.97 2276.17 1530.53 Q2274.36 1534.07 2274.36 1541.2 Q2274.36 1548.31 2276.17 1551.87 Q2278 1555.42 2281.61 1555.42 Q2285.24 1555.42 2287.05 1551.87 Q2288.88 1548.31 2288.88 1541.2 Q2288.88 1534.07 2287.05 1530.53 Q2285.24 1526.97 2281.61 1526.97 M2281.61 1523.26 Q2287.42 1523.26 2290.47 1527.87 Q2293.55 1532.45 2293.55 1541.2 Q2293.55 1549.93 2290.47 1554.54 Q2287.42 1559.12 2281.61 1559.12 Q2275.8 1559.12 2272.72 1554.54 Q2269.66 1549.93 2269.66 1541.2 Q2269.66 1532.45 2272.72 1527.87 Q2275.8 1523.26 2281.61 1523.26 Z" fill="#4c4c4c" fill-rule="evenodd" fill-opacity="1" /><path clip-path="url(#clip580)" d="M2301.77 1552.57 L2306.65 1552.57 L2306.65 1558.45 L2301.77 1558.45 L2301.77 1552.57 Z" fill="#4c4c4c" fill-rule="evenodd" fill-opacity="1" /><path clip-path="url(#clip580)" d="M2326.84 1526.97 Q2323.23 1526.97 2321.4 1530.53 Q2319.59 1534.07 2319.59 1541.2 Q2319.59 1548.31 2321.4 1551.87 Q2323.23 1555.42 2326.84 1555.42 Q2330.47 1555.42 2332.28 1551.87 Q2334.11 1548.31 2334.11 1541.2 Q2334.11 1534.07 2332.28 1530.53 Q2330.47 1526.97 2326.84 1526.97 M2326.84 1523.26 Q2332.65 1523.26 2335.7 1527.87 Q2338.78 1532.45 2338.78 1541.2 Q2338.78 1549.93 2335.7 1554.54 Q2332.65 1559.12 2326.84 1559.12 Q2321.03 1559.12 2317.95 1554.54 Q2314.89 1549.93 2314.89 1541.2 Q2314.89 1532.45 2317.95 1527.87 Q2321.03 1523.26 2326.84 1523.26 Z" fill="#4c4c4c" fill-rule="evenodd" fill-opacity="1" /><polyline clip-path="url(#clip582)" style="stroke:#ffffff; stroke-linecap:butt; stroke-linejoin:round; stroke-width:4; stroke-opacity:1; fill:none" points="
  141.853,1332.57 2352.76,1332.57 
  "/>
<polyline clip-path="url(#clip582)" style="stroke:#ffffff; stroke-linecap:butt; stroke-linejoin:round; stroke-width:4; stroke-opacity:1; fill:none" points="
  141.853,1106.28 2352.76,1106.28 
  "/>
<polyline clip-path="url(#clip582)" style="stroke:#ffffff; stroke-linecap:butt; stroke-linejoin:round; stroke-width:4; stroke-opacity:1; fill:none" points="
  141.853,879.992 2352.76,879.992 
  "/>
<polyline clip-path="url(#clip582)" style="stroke:#ffffff; stroke-linecap:butt; stroke-linejoin:round; stroke-width:4; stroke-opacity:1; fill:none" points="
  141.853,653.702 2352.76,653.702 
  "/>
<polyline clip-path="url(#clip582)" style="stroke:#ffffff; stroke-linecap:butt; stroke-linejoin:round; stroke-width:4; stroke-opacity:1; fill:none" points="
  141.853,427.411 2352.76,427.411 
  "/>
<polyline clip-path="url(#clip582)" style="stroke:#ffffff; stroke-linecap:butt; stroke-linejoin:round; stroke-width:4; stroke-opacity:1; fill:none" points="
  141.853,201.121 2352.76,201.121 
  "/>
<polyline clip-path="url(#clip582)" style="stroke:#ffffff; stroke-linecap:butt; stroke-linejoin:round; stroke-width:2; stroke-opacity:1; fill:none" points="
  141.853,1445.72 2352.76,1445.72 
  "/>
<polyline clip-path="url(#clip582)" style="stroke:#ffffff; stroke-linecap:butt; stroke-linejoin:round; stroke-width:2; stroke-opacity:1; fill:none" points="
  141.853,1219.43 2352.76,1219.43 
  "/>
<polyline clip-path="url(#clip582)" style="stroke:#ffffff; stroke-linecap:butt; stroke-linejoin:round; stroke-width:2; stroke-opacity:1; fill:none" points="
  141.853,993.137 2352.76,993.137 
  "/>
<polyline clip-path="url(#clip582)" style="stroke:#ffffff; stroke-linecap:butt; stroke-linejoin:round; stroke-width:2; stroke-opacity:1; fill:none" points="
  141.853,766.847 2352.76,766.847 
  "/>
<polyline clip-path="url(#clip582)" style="stroke:#ffffff; stroke-linecap:butt; stroke-linejoin:round; stroke-width:2; stroke-opacity:1; fill:none" points="
  141.853,540.557 2352.76,540.557 
  "/>
<polyline clip-path="url(#clip582)" style="stroke:#ffffff; stroke-linecap:butt; stroke-linejoin:round; stroke-width:2; stroke-opacity:1; fill:none" points="
  141.853,314.266 2352.76,314.266 
  "/>
<polyline clip-path="url(#clip582)" style="stroke:#ffffff; stroke-linecap:butt; stroke-linejoin:round; stroke-width:2; stroke-opacity:1; fill:none" points="
  141.853,87.9761 2352.76,87.9761 
  "/>
<polyline clip-path="url(#clip580)" style="stroke:#ffffff; stroke-linecap:butt; stroke-linejoin:round; stroke-width:4; stroke-opacity:1; fill:none" points="
  141.853,1486.45 141.853,47.2441 
  "/>
<polyline clip-path="url(#clip580)" style="stroke:#333333; stroke-linecap:butt; stroke-linejoin:round; stroke-width:4; stroke-opacity:1; fill:none" points="
  141.853,1332.57 122.955,1332.57 
  "/>
<polyline clip-path="url(#clip580)" style="stroke:#333333; stroke-linecap:butt; stroke-linejoin:round; stroke-width:4; stroke-opacity:1; fill:none" points="
  141.853,1106.28 122.955,1106.28 
  "/>
<polyline clip-path="url(#clip580)" style="stroke:#333333; stroke-linecap:butt; stroke-linejoin:round; stroke-width:4; stroke-opacity:1; fill:none" points="
  141.853,879.992 122.955,879.992 
  "/>
<polyline clip-path="url(#clip580)" style="stroke:#333333; stroke-linecap:butt; stroke-linejoin:round; stroke-width:4; stroke-opacity:1; fill:none" points="
  141.853,653.702 122.955,653.702 
  "/>
<polyline clip-path="url(#clip580)" style="stroke:#333333; stroke-linecap:butt; stroke-linejoin:round; stroke-width:4; stroke-opacity:1; fill:none" points="
  141.853,427.411 122.955,427.411 
  "/>
<polyline clip-path="url(#clip580)" style="stroke:#333333; stroke-linecap:butt; stroke-linejoin:round; stroke-width:4; stroke-opacity:1; fill:none" points="
  141.853,201.121 122.955,201.121 
  "/>
<polyline clip-path="url(#clip580)" style="stroke:#333333; stroke-linecap:butt; stroke-linejoin:round; stroke-width:4; stroke-opacity:1; fill:none" points="
  141.853,1445.72 132.404,1445.72 
  "/>
<polyline clip-path="url(#clip580)" style="stroke:#333333; stroke-linecap:butt; stroke-linejoin:round; stroke-width:4; stroke-opacity:1; fill:none" points="
  141.853,1219.43 132.404,1219.43 
  "/>
<polyline clip-path="url(#clip580)" style="stroke:#333333; stroke-linecap:butt; stroke-linejoin:round; stroke-width:4; stroke-opacity:1; fill:none" points="
  141.853,993.137 132.404,993.137 
  "/>
<polyline clip-path="url(#clip580)" style="stroke:#333333; stroke-linecap:butt; stroke-linejoin:round; stroke-width:4; stroke-opacity:1; fill:none" points="
  141.853,766.847 132.404,766.847 
  "/>
<polyline clip-path="url(#clip580)" style="stroke:#333333; stroke-linecap:butt; stroke-linejoin:round; stroke-width:4; stroke-opacity:1; fill:none" points="
  141.853,540.557 132.404,540.557 
  "/>
<polyline clip-path="url(#clip580)" style="stroke:#333333; stroke-linecap:butt; stroke-linejoin:round; stroke-width:4; stroke-opacity:1; fill:none" points="
  141.853,314.266 132.404,314.266 
  "/>
<polyline clip-path="url(#clip580)" style="stroke:#333333; stroke-linecap:butt; stroke-linejoin:round; stroke-width:4; stroke-opacity:1; fill:none" points="
  141.853,87.9761 132.404,87.9761 
  "/>
<path clip-path="url(#clip580)" d="M75.9086 1318.37 Q72.2975 1318.37 70.4688 1321.94 Q68.6632 1325.48 68.6632 1332.61 Q68.6632 1339.71 70.4688 1343.28 Q72.2975 1346.82 75.9086 1346.82 Q79.5428 1346.82 81.3483 1343.28 Q83.177 1339.71 83.177 1332.61 Q83.177 1325.48 81.3483 1321.94 Q79.5428 1318.37 75.9086 1318.37 M75.9086 1314.67 Q81.7187 1314.67 84.7743 1319.27 Q87.8529 1323.86 87.8529 1332.61 Q87.8529 1341.33 84.7743 1345.94 Q81.7187 1350.52 75.9086 1350.52 Q70.0984 1350.52 67.0197 1345.94 Q63.9642 1341.33 63.9642 1332.61 Q63.9642 1323.86 67.0197 1319.27 Q70.0984 1314.67 75.9086 1314.67 Z" fill="#4c4c4c" fill-rule="evenodd" fill-opacity="1" /><path clip-path="url(#clip580)" d="M36.5569 1119.63 L44.1958 1119.63 L44.1958 1093.26 L35.8856 1094.93 L35.8856 1090.67 L44.1495 1089 L48.8254 1089 L48.8254 1119.63 L56.4642 1119.63 L56.4642 1123.56 L36.5569 1123.56 L36.5569 1119.63 Z" fill="#4c4c4c" fill-rule="evenodd" fill-opacity="1" /><path clip-path="url(#clip580)" d="M75.9086 1092.08 Q72.2975 1092.08 70.4688 1095.65 Q68.6632 1099.19 68.6632 1106.32 Q68.6632 1113.42 70.4688 1116.99 Q72.2975 1120.53 75.9086 1120.53 Q79.5428 1120.53 81.3483 1116.99 Q83.177 1113.42 83.177 1106.32 Q83.177 1099.19 81.3483 1095.65 Q79.5428 1092.08 75.9086 1092.08 M75.9086 1088.38 Q81.7187 1088.38 84.7743 1092.98 Q87.8529 1097.57 87.8529 1106.32 Q87.8529 1115.04 84.7743 1119.65 Q81.7187 1124.23 75.9086 1124.23 Q70.0984 1124.23 67.0197 1119.65 Q63.9642 1115.04 63.9642 1106.32 Q63.9642 1097.57 67.0197 1092.98 Q70.0984 1088.38 75.9086 1088.38 Z" fill="#4c4c4c" fill-rule="evenodd" fill-opacity="1" /><path clip-path="url(#clip580)" d="M39.7745 893.337 L56.0939 893.337 L56.0939 897.272 L34.1495 897.272 L34.1495 893.337 Q36.8115 890.582 41.3949 885.953 Q46.0013 881.3 47.1819 879.957 Q49.4272 877.434 50.3068 875.698 Q51.2096 873.939 51.2096 872.249 Q51.2096 869.494 49.2652 867.758 Q47.3439 866.022 44.2421 866.022 Q42.043 866.022 39.5893 866.786 Q37.1588 867.55 34.381 869.101 L34.381 864.379 Q37.2051 863.244 39.6588 862.666 Q42.1124 862.087 44.1495 862.087 Q49.5198 862.087 52.7142 864.772 Q55.9087 867.457 55.9087 871.948 Q55.9087 874.078 55.0985 875.999 Q54.3115 877.897 52.205 880.49 Q51.6263 881.161 48.5245 884.379 Q45.4226 887.573 39.7745 893.337 Z" fill="#4c4c4c" fill-rule="evenodd" fill-opacity="1" /><path clip-path="url(#clip580)" d="M75.9086 865.791 Q72.2975 865.791 70.4688 869.355 Q68.6632 872.897 68.6632 880.027 Q68.6632 887.133 70.4688 890.698 Q72.2975 894.24 75.9086 894.24 Q79.5428 894.24 81.3483 890.698 Q83.177 887.133 83.177 880.027 Q83.177 872.897 81.3483 869.355 Q79.5428 865.791 75.9086 865.791 M75.9086 862.087 Q81.7187 862.087 84.7743 866.693 Q87.8529 871.277 87.8529 880.027 Q87.8529 888.754 84.7743 893.36 Q81.7187 897.943 75.9086 897.943 Q70.0984 897.943 67.0197 893.36 Q63.9642 888.754 63.9642 880.027 Q63.9642 871.277 67.0197 866.693 Q70.0984 862.087 75.9086 862.087 Z" fill="#4c4c4c" fill-rule="evenodd" fill-opacity="1" /><path clip-path="url(#clip580)" d="M49.9133 652.348 Q53.2698 653.065 55.1448 655.334 Q57.0429 657.602 57.0429 660.935 Q57.0429 666.051 53.5244 668.852 Q50.0059 671.653 43.5245 671.653 Q41.3486 671.653 39.0338 671.213 Q36.7421 670.797 34.2884 669.94 L34.2884 665.426 Q36.2328 666.56 38.5477 667.139 Q40.8625 667.718 43.3856 667.718 Q47.7837 667.718 50.0754 665.982 Q52.3902 664.246 52.3902 660.935 Q52.3902 657.88 50.2374 656.167 Q48.1078 654.431 44.2884 654.431 L40.2606 654.431 L40.2606 650.588 L44.4735 650.588 Q47.9226 650.588 49.7513 649.223 Q51.58 647.834 51.58 645.241 Q51.58 642.579 49.6819 641.167 Q47.8069 639.732 44.2884 639.732 Q42.3671 639.732 40.168 640.149 Q37.969 640.565 35.3301 641.445 L35.3301 637.278 Q37.9921 636.537 40.3069 636.167 Q42.6449 635.797 44.705 635.797 Q50.0291 635.797 53.1309 638.227 Q56.2327 640.635 56.2327 644.755 Q56.2327 647.625 54.5892 649.616 Q52.9457 651.584 49.9133 652.348 Z" fill="#4c4c4c" fill-rule="evenodd" fill-opacity="1" /><path clip-path="url(#clip580)" d="M75.9086 639.5 Q72.2975 639.5 70.4688 643.065 Q68.6632 646.607 68.6632 653.736 Q68.6632 660.843 70.4688 664.408 Q72.2975 667.949 75.9086 667.949 Q79.5428 667.949 81.3483 664.408 Q83.177 660.843 83.177 653.736 Q83.177 646.607 81.3483 643.065 Q79.5428 639.5 75.9086 639.5 M75.9086 635.797 Q81.7187 635.797 84.7743 640.403 Q87.8529 644.986 87.8529 653.736 Q87.8529 662.463 84.7743 667.07 Q81.7187 671.653 75.9086 671.653 Q70.0984 671.653 67.0197 667.07 Q63.9642 662.463 63.9642 653.736 Q63.9642 644.986 67.0197 640.403 Q70.0984 635.797 75.9086 635.797 Z" fill="#4c4c4c" fill-rule="evenodd" fill-opacity="1" /><path clip-path="url(#clip580)" d="M48.5939 414.206 L36.7884 432.654 L48.5939 432.654 L48.5939 414.206 M47.367 410.131 L53.2466 410.131 L53.2466 432.654 L58.1772 432.654 L58.1772 436.543 L53.2466 436.543 L53.2466 444.691 L48.5939 444.691 L48.5939 436.543 L32.9921 436.543 L32.9921 432.029 L47.367 410.131 Z" fill="#4c4c4c" fill-rule="evenodd" fill-opacity="1" /><path clip-path="url(#clip580)" d="M75.9086 413.21 Q72.2975 413.21 70.4688 416.775 Q68.6632 420.317 68.6632 427.446 Q68.6632 434.553 70.4688 438.117 Q72.2975 441.659 75.9086 441.659 Q79.5428 441.659 81.3483 438.117 Q83.177 434.553 83.177 427.446 Q83.177 420.317 81.3483 416.775 Q79.5428 413.21 75.9086 413.21 M75.9086 409.506 Q81.7187 409.506 84.7743 414.113 Q87.8529 418.696 87.8529 427.446 Q87.8529 436.173 84.7743 440.779 Q81.7187 445.363 75.9086 445.363 Q70.0984 445.363 67.0197 440.779 Q63.9642 436.173 63.9642 427.446 Q63.9642 418.696 67.0197 414.113 Q70.0984 409.506 75.9086 409.506 Z" fill="#4c4c4c" fill-rule="evenodd" fill-opacity="1" /><path clip-path="url(#clip580)" d="M35.793 183.841 L54.1494 183.841 L54.1494 187.776 L40.0754 187.776 L40.0754 196.249 Q41.0939 195.901 42.1124 195.739 Q43.131 195.554 44.1495 195.554 Q49.9365 195.554 53.3161 198.725 Q56.6957 201.897 56.6957 207.313 Q56.6957 212.892 53.2235 215.994 Q49.7513 219.072 43.4319 219.072 Q41.256 219.072 38.9875 218.702 Q36.7421 218.332 34.3347 217.591 L34.3347 212.892 Q36.418 214.026 38.6402 214.582 Q40.8625 215.137 43.3393 215.137 Q47.3439 215.137 49.6819 213.031 Q52.0198 210.924 52.0198 207.313 Q52.0198 203.702 49.6819 201.596 Q47.3439 199.489 43.3393 199.489 Q41.4643 199.489 39.5893 199.906 Q37.7375 200.323 35.793 201.202 L35.793 183.841 Z" fill="#4c4c4c" fill-rule="evenodd" fill-opacity="1" /><path clip-path="url(#clip580)" d="M75.9086 186.92 Q72.2975 186.92 70.4688 190.485 Q68.6632 194.026 68.6632 201.156 Q68.6632 208.262 70.4688 211.827 Q72.2975 215.369 75.9086 215.369 Q79.5428 215.369 81.3483 211.827 Q83.177 208.262 83.177 201.156 Q83.177 194.026 81.3483 190.485 Q79.5428 186.92 75.9086 186.92 M75.9086 183.216 Q81.7187 183.216 84.7743 187.823 Q87.8529 192.406 87.8529 201.156 Q87.8529 209.883 84.7743 214.489 Q81.7187 219.072 75.9086 219.072 Q70.0984 219.072 67.0197 214.489 Q63.9642 209.883 63.9642 201.156 Q63.9642 192.406 67.0197 187.823 Q70.0984 183.216 75.9086 183.216 Z" fill="#4c4c4c" fill-rule="evenodd" fill-opacity="1" /><polyline clip-path="url(#clip582)" style="stroke:#009af9; stroke-linecap:butt; stroke-linejoin:round; stroke-width:4; stroke-opacity:1; fill:none" points="
  204.426,508.748 206.511,502.482 208.597,496.243 210.683,490.03 212.769,483.845 214.854,477.689 216.94,471.561 219.026,465.463 221.112,459.396 223.197,453.358 
  225.283,447.353 227.369,441.379 229.455,435.438 231.541,429.529 233.626,423.655 235.712,417.815 237.798,412.01 239.884,406.24 241.969,400.506 244.055,394.809 
  246.141,389.15 248.227,383.528 250.312,377.944 252.398,372.399 254.484,366.894 256.57,361.428 258.655,356.003 260.741,350.62 262.827,345.278 264.913,339.978 
  266.998,334.72 269.084,329.506 271.17,324.336 273.256,319.21 275.341,314.129 277.427,309.092 279.513,304.102 281.599,299.158 283.684,294.261 285.77,289.411 
  287.856,284.609 289.942,279.855 292.027,275.149 294.113,270.493 296.199,265.887 298.285,261.33 300.371,256.825 302.456,252.37 304.542,247.966 306.628,243.615 
  308.714,239.316 310.799,235.069 312.885,230.876 314.971,226.736 317.057,222.65 319.142,218.619 321.228,214.643 323.314,210.722 325.4,206.856 327.485,203.046 
  329.571,199.293 331.657,195.597 333.743,191.957 335.828,188.376 337.914,184.852 340,181.386 342.086,177.979 344.171,174.63 346.257,171.341 348.343,168.111 
  350.429,164.942 352.514,161.832 354.6,158.783 356.686,155.795 358.772,152.868 360.857,150.002 362.943,147.198 365.029,144.456 367.115,141.776 369.201,139.159 
  371.286,136.604 373.372,134.113 375.458,131.684 377.544,129.32 379.629,127.019 381.715,124.782 383.801,122.609 385.887,120.501 387.972,118.457 390.058,116.478 
  392.144,114.564 394.23,112.715 396.315,110.932 398.401,109.214 400.487,107.563 402.573,105.977 404.658,104.457 406.744,103.003 408.83,101.616 410.916,100.295 
  413.001,99.0411 415.087,97.8538 417.173,96.7334 419.259,95.68 421.344,94.6938 423.43,93.7747 425.516,92.923 427.602,92.1387 429.687,91.4218 431.773,90.7724 
  433.859,90.1907 435.945,89.6766 438.031,89.2303 440.116,88.8517 442.202,88.5409 444.288,88.298 446.374,88.1229 448.459,88.0156 450.545,87.9763 452.631,88.0048 
  454.717,88.1012 456.802,88.2655 458.888,88.4977 460.974,88.7977 463.06,89.1655 465.145,89.601 467.231,90.1043 469.317,90.6753 471.403,91.3138 473.488,92.02 
  475.574,92.7936 477.66,93.6346 479.746,94.5429 481.831,95.5185 483.917,96.5612 486.003,97.6709 488.089,98.8475 490.174,100.091 492.26,101.401 494.346,102.778 
  496.432,104.221 498.517,105.73 500.603,107.306 502.689,108.947 504.775,110.654 506.861,112.427 508.946,114.265 511.032,116.169 513.118,118.137 515.204,120.171 
  517.289,122.269 519.375,124.431 521.461,126.658 523.547,128.949 525.632,131.304 527.718,133.722 529.804,136.203 531.89,138.748 533.975,141.355 536.061,144.025 
  538.147,146.757 540.233,149.551 542.318,152.407 544.404,155.325 546.49,158.303 548.576,161.343 550.661,164.442 552.747,167.603 554.833,170.823 556.919,174.102 
  559.004,177.441 561.09,180.839 563.176,184.296 565.262,187.81 567.347,191.383 569.433,195.013 571.519,198.701 573.605,202.445 575.691,206.246 577.776,210.102 
  579.862,214.015 581.948,217.982 584.034,222.005 586.119,226.082 588.205,230.213 590.291,234.398 592.377,238.636 594.462,242.927 596.548,247.27 598.634,251.665 
  600.72,256.112 602.805,260.609 604.891,265.158 606.977,269.756 609.063,274.405 611.148,279.102 613.234,283.848 615.32,288.643 617.406,293.485 619.491,298.375 
  621.577,303.312 623.663,308.295 625.749,313.323 627.834,318.398 629.92,323.517 632.006,328.68 634.092,333.887 636.177,339.137 638.263,344.431 640.349,349.766 
  642.435,355.143 644.521,360.562 646.606,366.021 648.692,371.52 650.778,377.058 652.864,382.636 654.949,388.252 657.035,393.905 659.121,399.597 661.207,405.324 
  663.292,411.088 665.378,416.888 667.464,422.723 669.55,428.592 671.635,434.494 673.721,440.43 675.807,446.399 677.893,452.4 679.978,458.432 682.064,464.495 
  684.15,470.588 686.236,476.711 688.321,482.863 690.407,489.043 692.493,495.251 694.579,501.487 696.664,507.748 698.75,514.036 700.836,520.349 702.922,526.687 
  705.007,533.048 707.093,539.433 709.179,545.841 711.265,552.271 713.351,558.722 715.436,565.194 717.522,571.686 719.608,578.198 721.694,584.729 723.779,591.278 
  725.865,597.844 727.951,604.427 730.037,611.027 732.122,617.642 734.208,624.272 736.294,630.917 738.38,637.574 740.465,644.245 742.551,650.928 744.637,657.623 
  746.723,664.329 748.808,671.045 750.894,677.77 752.98,684.504 755.066,691.247 757.151,697.997 759.237,704.754 761.323,711.517 763.409,718.286 765.494,725.06 
  767.58,731.838 769.666,738.619 771.752,745.403 773.837,752.189 775.923,758.977 778.009,765.766 780.095,772.554 782.18,779.342 784.266,786.129 786.352,792.914 
  788.438,799.696 790.524,806.475 792.609,813.25 794.695,820.021 796.781,826.786 798.867,833.545 800.952,840.297 803.038,847.042 805.124,853.779 807.21,860.508 
  809.295,867.227 811.381,873.936 813.467,880.634 815.553,887.321 817.638,893.996 819.724,900.658 821.81,907.307 823.896,913.941 825.981,920.561 828.067,927.166 
  830.153,933.754 832.239,940.326 834.324,946.881 836.41,953.417 838.496,959.935 840.582,966.434 842.667,972.912 844.753,979.37 846.839,985.807 848.925,992.222 
  851.01,998.614 853.096,1004.98 855.182,1011.33 857.268,1017.65 859.354,1023.95 861.439,1030.22 863.525,1036.46 865.611,1042.68 867.697,1048.87 869.782,1055.03 
  871.868,1061.16 873.954,1067.26 876.04,1073.33 878.125,1079.38 880.211,1085.39 882.297,1091.37 884.383,1097.31 886.468,1103.23 888.554,1109.11 890.64,1114.95 
  892.726,1120.76 894.811,1126.54 896.897,1132.28 898.983,1137.98 901.069,1143.65 903.154,1149.27 905.24,1154.86 907.326,1160.41 909.412,1165.93 911.497,1171.4 
  913.583,1176.83 915.669,1182.22 917.755,1187.57 919.84,1192.87 921.926,1198.14 924.012,1203.36 926.098,1208.54 928.184,1213.67 930.269,1218.76 932.355,1223.8 
  934.441,1228.8 936.527,1233.75 938.612,1238.66 940.698,1243.51 942.784,1248.32 944.87,1253.09 946.955,1257.8 949.041,1262.46 951.127,1267.08 953.213,1271.64 
  955.298,1276.15 957.384,1280.62 959.47,1285.03 961.556,1289.39 963.641,1293.7 965.727,1297.95 967.813,1302.15 969.899,1306.3 971.984,1310.4 974.07,1314.44 
  976.156,1318.42 978.242,1322.35 980.327,1326.23 982.413,1330.04 984.499,1333.81 986.585,1337.51 988.67,1341.16 990.756,1344.75 992.842,1348.28 994.928,1351.76 
  997.014,1355.18 999.099,1358.53 1001.19,1361.83 1003.27,1365.07 1005.36,1368.25 1007.44,1371.37 1009.53,1374.43 1011.61,1377.43 1013.7,1380.36 1015.79,1383.24 
  1017.87,1386.05 1019.96,1388.81 1022.04,1391.49 1024.13,1394.12 1026.21,1396.69 1028.3,1399.19 1030.39,1401.63 1032.47,1404 1034.56,1406.31 1036.64,1408.56 
  1038.73,1410.74 1040.81,1412.86 1042.9,1414.92 1044.99,1416.91 1047.07,1418.83 1049.16,1420.69 1051.24,1422.48 1053.33,1424.21 1055.41,1425.87 1057.5,1427.47 
  1059.59,1429 1061.67,1430.46 1063.76,1431.86 1065.84,1433.19 1067.93,1434.46 1070.02,1435.66 1072.1,1436.79 1074.19,1437.85 1076.27,1438.85 1078.36,1439.78 
  1080.44,1440.64 1082.53,1441.43 1084.62,1442.16 1086.7,1442.82 1088.79,1443.41 1090.87,1443.94 1092.96,1444.4 1095.04,1444.79 1097.13,1445.11 1099.22,1445.36 
  1101.3,1445.55 1103.39,1445.67 1105.47,1445.72 1107.56,1445.7 1109.64,1445.61 1111.73,1445.46 1113.82,1445.24 1115.9,1444.95 1117.99,1444.59 1120.07,1444.17 
  1122.16,1443.67 1124.24,1443.11 1126.33,1442.49 1128.42,1441.79 1130.5,1441.03 1132.59,1440.2 1134.67,1439.3 1136.76,1438.34 1138.85,1437.3 1140.93,1436.2 
  1143.02,1435.04 1145.1,1433.81 1147.19,1432.51 1149.27,1431.14 1151.36,1429.71 1153.45,1428.21 1155.53,1426.64 1157.62,1425.01 1159.7,1423.32 1161.79,1421.55 
  1163.87,1419.73 1165.96,1417.83 1168.05,1415.87 1170.13,1413.85 1172.22,1411.76 1174.3,1409.61 1176.39,1407.39 1178.47,1405.11 1180.56,1402.77 1182.65,1400.36 
  1184.73,1397.89 1186.82,1395.36 1188.9,1392.76 1190.99,1390.1 1193.07,1387.38 1195.16,1384.59 1197.25,1381.75 1199.33,1378.84 1201.42,1375.87 1203.5,1372.84 
  1205.59,1369.75 1207.68,1366.6 1209.76,1363.39 1211.85,1360.12 1213.93,1356.79 1216.02,1353.4 1218.1,1349.95 1220.19,1346.45 1222.28,1342.88 1224.36,1339.26 
  1226.45,1335.58 1228.53,1331.85 1230.62,1328.06 1232.7,1324.21 1234.79,1320.31 1236.88,1316.35 1238.96,1312.33 1241.05,1308.26 1243.13,1304.14 1245.22,1299.97 
  1247.3,1295.74 1249.39,1291.45 1251.48,1287.12 1253.56,1282.73 1255.65,1278.29 1257.73,1273.8 1259.82,1269.26 1261.9,1264.67 1263.99,1260.03 1266.08,1255.34 
  1268.16,1250.6 1270.25,1245.82 1272.33,1240.98 1274.42,1236.1 1276.51,1231.17 1278.59,1226.2 1280.68,1221.17 1282.76,1216.11 1284.85,1211 1286.93,1205.84 
  1289.02,1200.64 1291.11,1195.4 1293.19,1190.11 1295.28,1184.78 1297.36,1179.41 1299.45,1174 1301.53,1168.55 1303.62,1163.05 1305.71,1157.52 1307.79,1151.95 
  1309.88,1146.34 1311.96,1140.69 1314.05,1135.01 1316.13,1129.28 1318.22,1123.53 1320.31,1117.73 1322.39,1111.9 1324.48,1106.04 1326.56,1100.14 1328.65,1094.21 
  1330.73,1088.25 1332.82,1082.25 1334.91,1076.22 1336.99,1070.17 1339.08,1064.08 1341.16,1057.96 1343.25,1051.81 1345.34,1045.64 1347.42,1039.43 1349.51,1033.2 
  1351.59,1026.94 1353.68,1020.66 1355.76,1014.35 1357.85,1008.02 1359.94,1001.66 1362.02,995.279 1364.11,988.875 1366.19,982.448 1368.28,976.001 1370.36,969.532 
  1372.45,963.043 1374.54,956.534 1376.62,950.006 1378.71,943.46 1380.79,936.896 1382.88,930.316 1384.96,923.719 1387.05,917.106 1389.14,910.478 1391.22,903.836 
  1393.31,897.18 1395.39,890.512 1397.48,883.83 1399.56,877.138 1401.65,870.434 1403.74,863.719 1405.82,856.995 1407.91,850.262 1409.99,843.521 1412.08,836.772 
  1414.17,830.016 1416.25,823.254 1418.34,816.486 1420.42,809.713 1422.51,802.936 1424.59,796.155 1426.68,789.371 1428.77,782.585 1430.85,775.798 1432.94,769.009 
  1435.02,762.221 1437.11,755.432 1439.19,748.645 1441.28,741.86 1443.37,735.077 1445.45,728.298 1447.54,721.522 1449.62,714.751 1451.71,707.985 1453.79,701.225 
  1455.88,694.471 1457.97,687.725 1460.05,680.987 1462.14,674.257 1464.22,667.536 1466.31,660.826 1468.39,654.126 1470.48,647.437 1472.57,640.76 1474.65,634.096 
  1476.74,627.445 1478.82,620.808 1480.91,614.186 1483,607.579 1485.08,600.988 1487.17,594.413 1489.25,587.856 1491.34,581.316 1493.42,574.795 1495.51,568.294 
  1497.6,561.812 1499.68,555.351 1501.77,548.91 1503.85,542.492 1505.94,536.096 1508.02,529.723 1510.11,523.374 1512.2,517.049 1514.28,510.749 1516.37,504.475 
  1518.45,498.227 1520.54,492.006 1522.62,485.812 1524.71,479.647 1526.8,473.51 1528.88,467.403 1530.97,461.325 1533.05,455.278 1535.14,449.262 1537.22,443.278 
  1539.31,437.326 1541.4,431.408 1543.48,425.523 1545.57,419.671 1547.65,413.855 1549.74,408.074 1551.83,402.329 1553.91,396.62 1556,390.948 1558.08,385.314 
  1560.17,379.718 1562.25,374.161 1564.34,368.643 1566.43,363.165 1568.51,357.727 1570.6,352.33 1572.68,346.975 1574.77,341.661 1576.85,336.39 1578.94,331.162 
  1581.03,325.978 1583.11,320.838 1585.2,315.742 1587.28,310.692 1589.37,305.687 1591.45,300.728 1593.54,295.816 1595.63,290.951 1597.71,286.133 1599.8,281.364 
  1601.88,276.643 1603.97,271.971 1606.05,267.349 1608.14,262.776 1610.23,258.254 1612.31,253.783 1614.4,249.363 1616.48,244.995 1618.57,240.679 1620.66,236.416 
  1622.74,232.206 1624.83,228.049 1626.91,223.946 1629,219.897 1631.08,215.903 1633.17,211.965 1635.26,208.081 1637.34,204.254 1639.43,200.483 1641.51,196.768 
  1643.6,193.11 1645.68,189.51 1647.77,185.968 1649.86,182.483 1651.94,179.057 1654.03,175.69 1656.11,172.382 1658.2,169.134 1660.28,165.945 1662.37,162.816 
  1664.46,159.748 1666.54,156.74 1668.63,153.794 1670.71,150.908 1672.8,148.085 1674.88,145.323 1676.97,142.623 1679.06,139.986 1681.14,137.411 1683.23,134.9 
  1685.31,132.451 1687.4,130.066 1689.49,127.745 1691.57,125.487 1693.66,123.294 1695.74,121.165 1697.83,119.101 1699.91,117.101 1702,115.167 1704.09,113.297 
  1706.17,111.493 1708.26,109.754 1710.34,108.082 1712.43,106.475 1714.51,104.934 1716.6,103.459 1718.69,102.051 1720.77,100.709 1722.86,99.4333 1724.94,98.2247 
  1727.03,97.083 1729.11,96.0083 1731.2,95.0007 1733.29,94.0602 1735.37,93.187 1737.46,92.3812 1739.54,91.6428 1741.63,90.9719 1743.71,90.3687 1745.8,89.833 
  1747.89,89.3651 1749.97,88.9649 1752.06,88.6326 1754.14,88.368 1756.23,88.1713 1758.32,88.0424 1760.4,87.9814 1762.49,87.9884 1764.57,88.0632 1766.66,88.2058 
  1768.74,88.4164 1770.83,88.6948 1772.92,89.041 1775,89.4549 1777.09,89.9366 1779.17,90.486 1781.26,91.1031 1783.34,91.7877 1785.43,92.5398 1787.52,93.3594 
  1789.6,94.2463 1791.69,95.2004 1793.77,96.2218 1795.86,97.3101 1797.94,98.4655 1800.03,99.6877 1802.12,100.977 1804.2,102.332 1806.29,103.754 1808.37,105.242 
  1810.46,106.797 1812.54,108.417 1814.63,110.103 1816.72,111.855 1818.8,113.673 1820.89,115.555 1822.97,117.503 1825.06,119.516 1827.15,121.593 1829.23,123.736 
  1831.32,125.942 1833.4,128.212 1835.49,130.547 1837.57,132.945 1839.66,135.406 1841.75,137.93 1843.83,140.518 1845.92,143.168 1848,145.88 1850.09,148.655 
  1852.17,151.491 1854.26,154.389 1856.35,157.348 1858.43,160.368 1860.52,163.448 1862.6,166.589 1864.69,169.791 1866.77,173.051 1868.86,176.371 1870.95,179.751 
  1873.03,183.188 1875.12,186.685 1877.2,190.239 1879.29,193.851 1881.37,197.52 1883.46,201.246 1885.55,205.029 1887.63,208.868 1889.72,212.762 1891.8,216.712 
  1893.89,220.718 1895.98,224.777 1898.06,228.891 1900.15,233.059 1902.23,237.28 1904.32,241.554 1906.4,245.881 1908.49,250.259 1910.58,254.69 1912.66,259.171 
  1914.75,263.703 1916.83,268.286 1918.92,272.919 1921,277.6 1923.09,282.331 1925.18,287.111 1927.26,291.938 1929.35,296.812 1931.43,301.734 1933.52,306.702 
  1935.6,311.717 1937.69,316.776 1939.78,321.881 1941.86,327.03 1943.95,332.224 1946.03,337.46 1948.12,342.74 1950.2,348.062 1952.29,353.426 1954.38,358.831 
  1956.46,364.277 1958.55,369.764 1960.63,375.29 1962.72,380.855 1964.81,386.459 1966.89,392.1 1968.98,397.78 1971.06,403.496 1973.15,409.249 1975.23,415.037 
  1977.32,420.86 1979.41,426.718 1981.49,432.611 1983.58,438.536 1985.66,444.494 1987.75,450.485 1989.83,456.507 1991.92,462.56 1994.01,468.644 1996.09,474.758 
  1998.18,480.9 2000.26,487.072 2002.35,493.271 2004.43,499.498 2006.52,505.751 2008.61,512.03 2010.69,518.335 2012.78,524.665 2014.86,531.019 2016.95,537.397 
  2019.03,543.797 2021.12,550.22 2023.21,556.665 2025.29,563.13 2027.38,569.616 2029.46,576.122 2031.55,582.647 2033.64,589.19 2035.72,595.751 2037.81,602.329 
  2039.89,608.923 2041.98,615.533 2044.06,622.159 2046.15,628.799 2048.24,635.452 2050.32,642.119 2052.41,648.798 2054.49,655.489 2056.58,662.192 2058.66,668.904 
  2060.75,675.627 2062.84,682.358 2064.92,689.098 2067.01,695.846 2069.09,702.601 2071.18,709.362 2073.26,716.13 2075.35,722.902 2077.44,729.678 2079.52,736.459 
  2081.61,743.242 2083.69,750.028 2085.78,756.815 2087.86,763.603 2089.95,770.392 2092.04,777.18 2094.12,783.968 2096.21,790.753 2098.29,797.536 2100.38,804.316 
  2102.47,811.093 2104.55,817.865 2106.64,824.632 2108.72,831.393 2110.81,838.147 2112.89,844.895 2114.98,851.634 2117.07,858.366 2119.15,865.088 2121.24,871.8 
  2123.32,878.502 2125.41,885.192 2127.49,891.871 2129.58,898.537 2131.67,905.19 2133.75,911.829 2135.84,918.454 2137.92,925.064 2140.01,931.657 2142.09,938.235 
  2144.18,944.795 2146.27,951.337 2148.35,957.861 2150.44,964.366 2152.52,970.851 2154.61,977.316 2156.69,983.759 2158.78,990.181 2160.87,996.581 2162.95,1002.96 
  2165.04,1009.31 2167.12,1015.64 2169.21,1021.94 2171.3,1028.22 2173.38,1034.47 2175.47,1040.7 2177.55,1046.9 2179.64,1053.07 2181.72,1059.21 2183.81,1065.32 
  2185.9,1071.4 2187.98,1077.45 2190.07,1083.48 2192.15,1089.46 2194.24,1095.42 2196.32,1101.35 2198.41,1107.24 2200.5,1113.09 2202.58,1118.91 2204.67,1124.7 
  2206.75,1130.45 2208.84,1136.17 2210.92,1141.84 2213.01,1147.48 2215.1,1153.09 2217.18,1158.65 2219.27,1164.17 2221.35,1169.66 2223.44,1175.1 2225.52,1180.51 
  2227.61,1185.87 2229.7,1191.19 2231.78,1196.47 2233.87,1201.7 2235.95,1206.89 2238.04,1212.04 2240.12,1217.14 2242.21,1222.2 2244.3,1227.21 2246.38,1232.18 
  2248.47,1237.1 2250.55,1241.97 2252.64,1246.8 2254.73,1251.57 2256.81,1256.3 2258.9,1260.98 2260.98,1265.61 2263.07,1270.19 2265.15,1274.72 2267.24,1279.2 
  2269.33,1283.63 2271.41,1288.01 2273.5,1292.33 2275.58,1296.6 2277.67,1300.82 2279.75,1304.99 2281.84,1309.1 2283.93,1313.16 2286.01,1317.16 2288.1,1321.11 
  2290.18,1325 
  "/>
<path clip-path="url(#clip580)" d="
M1980.97 198.898 L2279.06 198.898 L2279.06 95.2176 L1980.97 95.2176  Z
  " fill="#eaeaea" fill-rule="evenodd" fill-opacity="1"/>
<polyline clip-path="url(#clip580)" style="stroke:#ffffff; stroke-linecap:butt; stroke-linejoin:round; stroke-width:4; stroke-opacity:1; fill:none" points="
  1980.97,198.898 2279.06,198.898 2279.06,95.2176 1980.97,95.2176 1980.97,198.898 
  "/>
<polyline clip-path="url(#clip580)" style="stroke:#009af9; stroke-linecap:butt; stroke-linejoin:round; stroke-width:4; stroke-opacity:1; fill:none" points="
  2005.54,147.058 2152.93,147.058 
  "/>
<path clip-path="url(#clip580)" d="M2191.34 166.745 Q2189.53 171.375 2187.82 172.787 Q2186.11 174.199 2183.24 174.199 L2179.84 174.199 L2179.84 170.634 L2182.34 170.634 Q2184.09 170.634 2185.07 169.8 Q2186.04 168.967 2187.22 165.865 L2187.98 163.921 L2177.5 138.412 L2182.01 138.412 L2190.11 158.689 L2198.22 138.412 L2202.73 138.412 L2191.34 166.745 Z" fill="#000000" fill-rule="evenodd" fill-opacity="1" /><path clip-path="url(#clip580)" d="M2210.02 160.402 L2217.66 160.402 L2217.66 134.037 L2209.35 135.703 L2209.35 131.444 L2217.61 129.778 L2222.29 129.778 L2222.29 160.402 L2229.93 160.402 L2229.93 164.338 L2210.02 164.338 L2210.02 160.402 Z" fill="#000000" fill-rule="evenodd" fill-opacity="1" /></svg>
